<?xml version="1.0" encoding="UTF-8" standalone="no"?>
<!DOCTYPE svg PUBLIC "-//W3C//DTD SVG 1.1//EN" "http://www.w3.org/Graphics/SVG/1.1/DTD/svg11.dtd">
<!-- Created with Vectornator (http://vectornator.io/) -->
<svg height="100%" stroke-miterlimit="10" style="fill-rule:nonzero;clip-rule:evenodd;stroke-linecap:round;stroke-linejoin:round;" version="1.1" viewBox="0 0 120 40" width="100%" xml:space="preserve" xmlns="http://www.w3.org/2000/svg" xmlns:xlink="http://www.w3.org/1999/xlink">
<defs/>
<clipPath id="ArtboardFrame">
<rect height="40" width="120" x="0" y="0"/>
</clipPath>
<g clip-path="url(#ArtboardFrame)" id="main_group">
<path d="M-0.8-1.4L120.912-1.4L120.912-1.4L120.912 40.3143L120.912 40.3143L-0.8 40.3143L-0.8 40.3143L-0.8-1.4L-0.8-1.4Z" fill="#90ee90" fill-rule="nonzero" opacity="1" stroke="none"/>
<g fill="#000000" opacity="1" stroke="none">
<path d="M29.2288 7.06795L27.7617 7.06795L27.7617 9.55232L26.3273 9.55232L26.3273 2.64295L29.3367 2.64295C30.0304 2.64295 30.5835 2.82107 30.996 3.17732C31.4085 3.53357 31.6148 4.08513 31.6148 4.83201C31.6148 5.64763 31.4085 6.2242 30.996 6.5617C30.5835 6.8992 29.9945 7.06795 29.2288 7.06795ZM29.9038 5.62888C30.0913 5.46326 30.1851 5.20076 30.1851 4.84138C30.1851 4.48201 30.0906 4.22576 29.9015 4.07263C29.7124 3.91951 29.4476 3.84295 29.107 3.84295L27.7617 3.84295L27.7617 5.87732L29.107 5.87732C29.4476 5.87732 29.7132 5.79451 29.9038 5.62888Z"/>
<path d="M36.8507 5.08982C37.282 5.63045 37.4976 6.26951 37.4976 7.00701C37.4976 7.75701 37.282 8.39841 36.8507 8.93123C36.4195 9.46404 35.7648 9.73045 34.8867 9.73045C34.0085 9.73045 33.3538 9.46404 32.9226 8.93123C32.4913 8.39841 32.2757 7.75701 32.2757 7.00701C32.2757 6.26951 32.4913 5.63045 32.9226 5.08982C33.3538 4.5492 34.0085 4.27888 34.8867 4.27888C35.7648 4.27888 36.4195 4.5492 36.8507 5.08982ZM34.882 5.40857C34.4913 5.40857 34.1906 5.54685 33.9796 5.82341C33.7687 6.09998 33.6632 6.49451 33.6632 7.00701C33.6632 7.51951 33.7687 7.91482 33.9796 8.19295C34.1906 8.47107 34.4913 8.61013 34.882 8.61013C35.2726 8.61013 35.5726 8.47107 35.782 8.19295C35.9913 7.91482 36.096 7.51951 36.096 7.00701C36.096 6.49451 35.9913 6.09998 35.782 5.82341C35.5726 5.54685 35.2726 5.40857 34.882 5.40857Z"/>
<path d="M42.3304 9.55232L41.5288 5.83045L40.7179 9.55232L39.3304 9.55232L37.896 4.44295L39.3304 4.44295L40.1273 8.10857L40.8632 4.44295L42.2179 4.44295L42.996 8.12263L43.7929 4.44295L45.1851 4.44295L43.7038 9.55232L42.3304 9.55232Z"/>
<path d="M49.1179 7.10076C49.1179 7.63826 49.232 8.08826 49.4601 8.45076C49.6882 8.81326 50.0538 8.99451 50.557 8.99451C50.9476 8.99451 51.2687 8.82654 51.5202 8.4906C51.7718 8.15466 51.8976 7.67263 51.8976 7.04451C51.8976 6.41013 51.7679 5.9406 51.5085 5.63591C51.2492 5.33123 50.9288 5.17888 50.5476 5.17888C50.1226 5.17888 49.7781 5.34138 49.514 5.66638C49.2499 5.99138 49.1179 6.46951 49.1179 7.10076ZM50.3882 4.44295C50.7726 4.44295 51.0945 4.5242 51.3538 4.6867C51.5038 4.78045 51.6742 4.94451 51.8648 5.17888L51.8648 2.64295L52.6757 2.64295L52.6757 9.55232L51.9163 9.55232L51.9163 8.85388C51.7195 9.16326 51.4867 9.3867 51.2179 9.5242C50.9492 9.6617 50.6413 9.73045 50.2945 9.73045C49.7351 9.73045 49.2507 9.49529 48.8413 9.02498C48.432 8.55466 48.2273 7.92888 48.2273 7.14763C48.2273 6.41638 48.414 5.78279 48.7874 5.24685C49.1609 4.71091 49.6945 4.44295 50.3882 4.44295Z"/>
<path d="M56.0132 4.41951C56.3695 4.41951 56.7148 4.5031 57.0492 4.67029C57.3835 4.83748 57.6382 5.05388 57.8132 5.31951C57.982 5.57263 58.0945 5.86795 58.1507 6.20545C58.2007 6.4367 58.2257 6.80545 58.2257 7.3117L54.546 7.3117C54.5617 7.82107 54.682 8.22966 54.907 8.53748C55.132 8.84529 55.4804 8.9992 55.9523 8.9992C56.3929 8.9992 56.7445 8.85388 57.007 8.56326C57.157 8.39451 57.2632 8.1992 57.3257 7.97732L58.1554 7.97732C58.1335 8.1617 58.0609 8.36716 57.9374 8.59373C57.814 8.82029 57.6757 9.00545 57.5226 9.1492C57.2663 9.3992 56.9492 9.56795 56.571 9.65545C56.3679 9.70545 56.1382 9.73045 55.882 9.73045C55.257 9.73045 54.7273 9.5031 54.2929 9.04841C53.8585 8.59373 53.6413 7.95701 53.6413 7.13826C53.6413 6.33201 53.8601 5.67732 54.2976 5.1742C54.7351 4.67107 55.307 4.41951 56.0132 4.41951ZM57.3585 6.64138C57.3242 6.27576 57.2445 5.98357 57.1195 5.76482C56.8882 5.35857 56.5023 5.15545 55.9617 5.15545C55.5742 5.15545 55.2492 5.29529 54.9867 5.57498C54.7242 5.85466 54.5851 6.21013 54.5695 6.64138L57.3585 6.64138Z"/>
<path d="M59.2851 4.53201L60.0867 4.53201L60.0867 5.3992C60.1523 5.23045 60.3132 5.02498 60.5695 4.78279C60.8257 4.5406 61.121 4.41951 61.4554 4.41951C61.471 4.41951 61.4976 4.42107 61.5351 4.4242C61.5726 4.42732 61.6367 4.43357 61.7273 4.44295L61.7273 5.33357C61.6773 5.3242 61.6312 5.31795 61.589 5.31482C61.5468 5.3117 61.5007 5.31013 61.4507 5.31013C61.0257 5.31013 60.6992 5.44685 60.471 5.72029C60.2429 5.99373 60.1288 6.30857 60.1288 6.66482L60.1288 9.55232L59.2851 9.55232L59.2851 4.53201Z"/>
<path d="M31.1695 20.0367C30.6538 20.5086 29.9945 20.7445 29.1913 20.7445C28.1976 20.7445 27.4163 20.4258 26.8476 19.7883C26.2788 19.1476 25.9945 18.2695 25.9945 17.1539C25.9945 15.9476 26.3179 15.0179 26.9648 14.3648C27.5273 13.7961 28.2429 13.5117 29.1117 13.5117C30.2742 13.5117 31.1242 13.8929 31.6617 14.6554C31.9585 15.0836 32.1179 15.5133 32.1398 15.9445L30.696 15.9445C30.6023 15.6133 30.482 15.3633 30.3351 15.1945C30.0726 14.8945 29.6835 14.7445 29.1679 14.7445C28.6429 14.7445 28.2288 14.9562 27.9257 15.3797C27.6226 15.8031 27.471 16.4023 27.471 17.1773C27.471 17.9523 27.6312 18.5328 27.9515 18.9187C28.2718 19.3047 28.6788 19.4976 29.1726 19.4976C29.6788 19.4976 30.0648 19.332 30.3304 19.0008C30.4773 18.8226 30.5992 18.5554 30.696 18.1992L32.1257 18.1992C32.0007 18.9523 31.682 19.5648 31.1695 20.0367Z"/>
<path d="M37.7742 20.0086C38.3335 20.0086 38.7171 19.7969 38.9249 19.3734C39.1327 18.95 39.2367 18.4789 39.2367 17.9601C39.2367 17.4914 39.1617 17.1101 39.0117 16.8164C38.7742 16.3539 38.3648 16.1226 37.7835 16.1226C37.2679 16.1226 36.8929 16.3195 36.6585 16.7133C36.4242 17.107 36.307 17.582 36.307 18.1383C36.307 18.6726 36.4242 19.1179 36.6585 19.4742C36.8929 19.8304 37.2648 20.0086 37.7742 20.0086ZM37.807 15.3867C38.4538 15.3867 39.0007 15.6023 39.4476 16.0336C39.8945 16.4648 40.1179 17.0992 40.1179 17.9367C40.1179 18.7461 39.921 19.4148 39.5273 19.9429C39.1335 20.4711 38.5226 20.7351 37.6945 20.7351C37.0038 20.7351 36.4554 20.5015 36.0492 20.0344C35.6429 19.5672 35.4398 18.9398 35.4398 18.1523C35.4398 17.3086 35.6538 16.6367 36.082 16.1367C36.5101 15.6367 37.0851 15.3867 37.807 15.3867Z"/>
<path d="M41.7679 19.2164C41.7679 19.4601 41.857 19.6523 42.0351 19.7929C42.2132 19.9336 42.4242 20.0039 42.6679 20.0039C42.9648 20.0039 43.2523 19.9351 43.5304 19.7976C43.9992 19.5695 44.2335 19.1961 44.2335 18.6773L44.2335 17.9976C44.1304 18.0633 43.9976 18.1179 43.8351 18.1617C43.6726 18.2054 43.5132 18.2367 43.357 18.2554L42.846 18.3211C42.5398 18.3617 42.3101 18.4258 42.157 18.5133C41.8976 18.6601 41.7679 18.8945 41.7679 19.2164ZM43.8117 17.5101C44.0054 17.4851 44.1351 17.4039 44.2007 17.2664C44.2382 17.1914 44.257 17.0836 44.257 16.9429C44.257 16.6554 44.1546 16.4469 43.9499 16.3172C43.7452 16.1875 43.4523 16.1226 43.071 16.1226C42.6304 16.1226 42.3179 16.2414 42.1335 16.4789C42.0304 16.6101 41.9632 16.8054 41.932 17.0648L41.1445 17.0648C41.1601 16.4461 41.3609 16.0156 41.7468 15.7734C42.1327 15.5312 42.5804 15.4101 43.0898 15.4101C43.6804 15.4101 44.1601 15.5226 44.5288 15.7476C44.8945 15.9726 45.0773 16.3226 45.0773 16.7976L45.0773 19.6898C45.0773 19.7773 45.0952 19.8476 45.1312 19.9008C45.1671 19.9539 45.2429 19.9804 45.3585 19.9804C45.396 19.9804 45.4382 19.9781 45.4851 19.9734C45.532 19.9687 45.582 19.9617 45.6351 19.9523L45.6351 20.5758C45.5038 20.6133 45.4038 20.6367 45.3351 20.6461C45.2663 20.6554 45.1726 20.6601 45.0538 20.6601C44.7632 20.6601 44.5523 20.557 44.421 20.3508C44.3523 20.2414 44.3038 20.0867 44.2757 19.8867C44.1038 20.1117 43.857 20.307 43.5351 20.4726C43.2132 20.6383 42.8585 20.7211 42.471 20.7211C42.0054 20.7211 41.6249 20.5797 41.3296 20.2969C41.0343 20.014 40.8867 19.6601 40.8867 19.2351C40.8867 18.7695 41.032 18.4086 41.3226 18.1523C41.6132 17.8961 41.9945 17.7383 42.4663 17.6789L43.8117 17.5101Z"/>
<path d="M46.6288 14.1304L47.482 14.1304L47.482 15.532L48.2835 15.532L48.2835 16.2211L47.482 16.2211L47.482 19.4976C47.482 19.6726 47.5413 19.7898 47.6601 19.8492C47.7257 19.8836 47.8351 19.9008 47.9882 19.9008C48.0288 19.9008 48.0726 19.9 48.1195 19.8984C48.1663 19.8969 48.221 19.8929 48.2835 19.8867L48.2835 20.5523C48.1867 20.5804 48.0859 20.6008 47.9812 20.6133C47.8765 20.6258 47.7632 20.632 47.6413 20.632C47.2476 20.632 46.9804 20.5312 46.8398 20.3297C46.6992 20.1281 46.6288 19.8664 46.6288 19.5445L46.6288 16.2211L45.9492 16.2211L45.9492 15.532L46.6288 15.532L46.6288 14.1304Z"/>
<path d="M49.1273 15.5554L49.9851 15.5554L49.9851 20.5523L49.1273 20.5523L49.1273 15.5554ZM49.1273 13.6664L49.9851 13.6664L49.9851 14.6226L49.1273 14.6226L49.1273 13.6664Z"/>
<path d="M51.2601 15.532L52.0617 15.532L52.0617 16.2445C52.2992 15.9508 52.5507 15.7398 52.8163 15.6117C53.082 15.4836 53.3773 15.4195 53.7023 15.4195C54.4148 15.4195 54.896 15.6679 55.146 16.1648C55.2835 16.4367 55.3523 16.8258 55.3523 17.332L55.3523 20.5523L54.4945 20.5523L54.4945 17.3883C54.4945 17.082 54.4492 16.8351 54.3585 16.6476C54.2085 16.3351 53.9367 16.1789 53.5429 16.1789C53.3429 16.1789 53.1788 16.1992 53.0507 16.2398C52.8195 16.3086 52.6163 16.4461 52.4413 16.6523C52.3007 16.8179 52.2093 16.989 52.1671 17.1656C52.1249 17.3422 52.1038 17.5945 52.1038 17.9226L52.1038 20.5523L51.2601 20.5523L51.2601 15.532Z"/>
<path d="M58.371 15.4429C58.7648 15.4429 59.1085 15.5398 59.4023 15.7336C59.5617 15.8429 59.7242 16.0023 59.8898 16.2117L59.8898 15.5789L60.6679 15.5789L60.6679 20.1445C60.6679 20.782 60.5742 21.2851 60.3867 21.6539C60.0367 22.3351 59.3757 22.6758 58.4038 22.6758C57.8632 22.6758 57.4085 22.5547 57.0398 22.3125C56.671 22.0703 56.4648 21.6914 56.421 21.1758L57.2788 21.1758C57.3195 21.4008 57.4007 21.5742 57.5226 21.6961C57.7132 21.8836 58.0132 21.9773 58.4226 21.9773C59.0695 21.9773 59.4929 21.7492 59.6929 21.2929C59.8117 21.0242 59.8663 20.5445 59.857 19.8539C59.6882 20.1101 59.4851 20.3008 59.2476 20.4258C59.0101 20.5508 58.696 20.6133 58.3054 20.6133C57.7617 20.6133 57.2859 20.4203 56.8781 20.0344C56.4702 19.6484 56.2663 19.0101 56.2663 18.1195C56.2663 17.2789 56.4718 16.6226 56.8827 16.1508C57.2937 15.6789 57.7898 15.4429 58.371 15.4429ZM59.8898 18.0211C59.8898 17.3992 59.7617 16.9383 59.5054 16.6383C59.2492 16.3383 58.9226 16.1883 58.5257 16.1883C57.932 16.1883 57.5257 16.4664 57.307 17.0226C57.1913 17.3195 57.1335 17.7086 57.1335 18.1898C57.1335 18.7554 57.2484 19.1859 57.4781 19.4812C57.7077 19.7765 58.0163 19.9242 58.4038 19.9242C59.0101 19.9242 59.4367 19.6508 59.6835 19.1039C59.821 18.7945 59.8898 18.4336 59.8898 18.0211Z"/>
<path d="M31.1038 31.5336L27.7476 31.5336L27.7476 33.3101L31.5726 33.3101L31.5726 34.5523L26.3367 34.5523L26.3367 27.6429L31.4038 27.6429L31.4038 28.8664L27.7476 28.8664L27.7476 30.3336L31.1038 30.3336L31.1038 31.5336Z"/>
<path d="M35.8851 36.5773L35.8851 33.9195C35.7851 34.1258 35.614 34.3094 35.3718 34.4703C35.1296 34.6312 34.7992 34.7117 34.3804 34.7117C33.7898 34.7117 33.2867 34.4758 32.871 34.0039C32.4554 33.532 32.2476 32.9023 32.2476 32.1148C32.2476 31.2648 32.4562 30.5851 32.8734 30.0758C33.2906 29.5664 33.8054 29.3117 34.4179 29.3117C34.8429 29.3117 35.1867 29.4164 35.4492 29.6258C35.6023 29.7445 35.7585 29.9398 35.9179 30.2117L35.9179 29.4523L37.207 29.4523L37.207 36.5773L35.8851 36.5773ZM33.7804 32.9258C33.9554 33.3539 34.2804 33.5679 34.7554 33.5679C35.2148 33.5679 35.5413 33.3711 35.7351 32.9773C35.8601 32.7179 35.9226 32.3898 35.9226 31.9929C35.9226 31.6804 35.8695 31.4008 35.7632 31.1539C35.5726 30.7101 35.2382 30.4883 34.7601 30.4883C34.4226 30.4883 34.1515 30.6179 33.9468 30.8773C33.7421 31.1367 33.6398 31.5304 33.6398 32.0586C33.6398 32.4117 33.6867 32.7008 33.7804 32.9258Z"/>
<path d="M41.9601 29.532L41.9601 32.8648C41.9601 33.1211 42.0007 33.3304 42.082 33.4929C42.232 33.7929 42.5117 33.9429 42.921 33.9429C43.5085 33.9429 43.9085 33.6804 44.121 33.1554C44.2367 32.8742 44.2945 32.4883 44.2945 31.9976L44.2945 29.532L45.1382 29.532L45.1382 34.5523L44.3413 34.5523L44.3507 33.8117C44.2413 34.0023 44.1054 34.1633 43.9429 34.2945C43.621 34.557 43.2304 34.6883 42.771 34.6883C42.0554 34.6883 41.5679 34.4492 41.3085 33.9711C41.1679 33.7148 41.0976 33.3726 41.0976 32.9445L41.0976 29.532L41.9601 29.532Z"/>
<path d="M46.4554 29.5554L47.3132 29.5554L47.3132 34.5523L46.4554 34.5523L46.4554 29.5554ZM46.4554 27.6664L47.3132 27.6664L47.3132 28.6226L46.4554 28.6226L46.4554 27.6664Z"/>
<path d="M50.707 33.9851C51.1007 33.9851 51.4281 33.8203 51.689 33.4906C51.9499 33.1609 52.0804 32.6679 52.0804 32.0117C52.0804 31.6117 52.0226 31.2679 51.907 30.9804C51.6882 30.4273 51.2882 30.1508 50.707 30.1508C50.1226 30.1508 49.7226 30.4429 49.507 31.0273C49.3913 31.3398 49.3335 31.7367 49.3335 32.2179C49.3335 32.6054 49.3913 32.9351 49.507 33.207C49.7257 33.7258 50.1257 33.9851 50.707 33.9851ZM48.5226 29.5554L49.3429 29.5554L49.3429 30.2211C49.5117 29.9929 49.696 29.8164 49.896 29.6914C50.1804 29.5039 50.5148 29.4101 50.8992 29.4101C51.4679 29.4101 51.9507 29.6281 52.3476 30.064C52.7445 30.5 52.9429 31.1226 52.9429 31.932C52.9429 33.0258 52.657 33.807 52.0851 34.2758C51.7226 34.5726 51.3007 34.7211 50.8195 34.7211C50.4413 34.7211 50.1242 34.6383 49.8679 34.4726C49.7179 34.3789 49.5507 34.2179 49.3663 33.9898L49.3663 36.5539L48.5226 36.5539L48.5226 29.5554Z"/>
<path d="M53.9273 29.532L54.7617 29.532L54.7617 30.2445C54.9617 29.9976 55.1429 29.8179 55.3054 29.7054C55.5835 29.5148 55.8992 29.4195 56.2523 29.4195C56.6523 29.4195 56.9742 29.5179 57.2179 29.7148C57.3554 29.8273 57.4804 29.9929 57.5929 30.2117C57.7804 29.9429 58.0007 29.7437 58.2538 29.614C58.507 29.4844 58.7913 29.4195 59.107 29.4195C59.782 29.4195 60.2413 29.6633 60.4851 30.1508C60.6163 30.4133 60.682 30.7664 60.682 31.2101L60.682 34.5523L59.8054 34.5523L59.8054 31.0648C59.8054 30.7304 59.7218 30.5008 59.5546 30.3758C59.3874 30.2508 59.1835 30.1883 58.9429 30.1883C58.6117 30.1883 58.3265 30.2992 58.0874 30.5211C57.8484 30.7429 57.7288 31.1133 57.7288 31.632L57.7288 34.5523L56.871 34.5523L56.871 31.2758C56.871 30.9351 56.8304 30.6867 56.7492 30.5304C56.621 30.2961 56.382 30.1789 56.032 30.1789C55.7132 30.1789 55.4234 30.3023 55.1624 30.5492C54.9015 30.7961 54.771 31.2429 54.771 31.8898L54.771 34.5523L53.9273 34.5523L53.9273 29.532Z"/>
<path d="M64.0148 29.4195C64.371 29.4195 64.7163 29.5031 65.0507 29.6703C65.3851 29.8375 65.6398 30.0539 65.8148 30.3195C65.9835 30.5726 66.096 30.8679 66.1523 31.2054C66.2023 31.4367 66.2273 31.8054 66.2273 32.3117L62.5476 32.3117C62.5632 32.8211 62.6835 33.2297 62.9085 33.5375C63.1335 33.8453 63.482 33.9992 63.9538 33.9992C64.3945 33.9992 64.746 33.8539 65.0085 33.5633C65.1585 33.3945 65.2648 33.1992 65.3273 32.9773L66.157 32.9773C66.1351 33.1617 66.0624 33.3672 65.939 33.5937C65.8156 33.8203 65.6773 34.0054 65.5242 34.1492C65.2679 34.3992 64.9507 34.5679 64.5726 34.6554C64.3695 34.7054 64.1398 34.7304 63.8835 34.7304C63.2585 34.7304 62.7288 34.5031 62.2945 34.0484C61.8601 33.5937 61.6429 32.957 61.6429 32.1383C61.6429 31.332 61.8617 30.6773 62.2992 30.1742C62.7367 29.6711 63.3085 29.4195 64.0148 29.4195ZM65.3601 31.6414C65.3257 31.2758 65.246 30.9836 65.121 30.7648C64.8898 30.3586 64.5038 30.1554 63.9632 30.1554C63.5757 30.1554 63.2507 30.2953 62.9882 30.575C62.7257 30.8547 62.5867 31.2101 62.571 31.6414L65.3601 31.6414Z"/>
<path d="M67.2632 29.532L68.0648 29.532L68.0648 30.2445C68.3023 29.9508 68.5538 29.7398 68.8195 29.6117C69.0851 29.4836 69.3804 29.4195 69.7054 29.4195C70.4179 29.4195 70.8992 29.6679 71.1492 30.1648C71.2867 30.4367 71.3554 30.8258 71.3554 31.332L71.3554 34.5523L70.4976 34.5523L70.4976 31.3883C70.4976 31.082 70.4523 30.8351 70.3617 30.6476C70.2117 30.3351 69.9398 30.1789 69.546 30.1789C69.346 30.1789 69.182 30.1992 69.0538 30.2398C68.8226 30.3086 68.6195 30.4461 68.4445 30.6523C68.3038 30.8179 68.2124 30.989 68.1702 31.1656C68.1281 31.3422 68.107 31.5945 68.107 31.9226L68.107 34.5523L67.2632 34.5523L67.2632 29.532Z"/>
<path d="M72.771 28.1304L73.6242 28.1304L73.6242 29.532L74.4257 29.532L74.4257 30.2211L73.6242 30.2211L73.6242 33.4976C73.6242 33.6726 73.6835 33.7898 73.8023 33.8492C73.8679 33.8836 73.9773 33.9008 74.1304 33.9008C74.171 33.9008 74.2148 33.9 74.2617 33.8984C74.3085 33.8969 74.3632 33.8929 74.4257 33.8867L74.4257 34.5523C74.3288 34.5804 74.2281 34.6008 74.1234 34.6133C74.0187 34.6258 73.9054 34.632 73.7835 34.632C73.3898 34.632 73.1226 34.5312 72.982 34.3297C72.8413 34.1281 72.771 33.8664 72.771 33.5445L72.771 30.2211L72.0913 30.2211L72.0913 29.532L72.771 29.532L72.771 28.1304Z"/>
</g>
</g>
</svg>
