<?xml version="1.0" encoding="UTF-8" standalone="no"?>
<!DOCTYPE svg PUBLIC "-//W3C//DTD SVG 1.1//EN" "http://www.w3.org/Graphics/SVG/1.1/DTD/svg11.dtd">
<!-- Created with Vectornator (http://vectornator.io/) -->
<svg height="100%" stroke-miterlimit="10" style="fill-rule:nonzero;clip-rule:evenodd;stroke-linecap:round;stroke-linejoin:round;" version="1.1" viewBox="0 0 192.642 49.6259" width="100%" xml:space="preserve" xmlns="http://www.w3.org/2000/svg" xmlns:vectornator="http://vectornator.io" xmlns:xlink="http://www.w3.org/1999/xlink">
<defs/>
<g id="Layer-1" vectornator:layerName="Layer 1">
<g opacity="1" vectornator:layerName="Group 1">
<g opacity="1">
<path d="M43.8125 7.90625C42.9211 7.6698 42.0177 8.17105 41.7812 9.0625C41.4472 10.4543 41.1296 11.8665 40.9062 13.2812C40.7141 14.4987 40.6026 15.7385 40.5312 16.9688C40.4577 18.2362 40.4829 19.5146 40.5625 20.7812C40.8169 24.827 41.9777 29.9303 46.4375 31.2188C47.42 31.5026 48.3916 31.5353 49.4062 31.5C48.4189 31.4106 47.4801 31.2697 46.5625 30.875C41.8519 28.8488 42.201 22.6347 42.9375 18.4688C43.0751 17.6902 43.2003 16.8961 43.375 16.125C43.6256 15.019 43.9064 13.9113 44.1875 12.8125C44.4347 11.8463 44.7209 10.8949 45 9.9375C45.2365 9.04605 44.7039 8.1427 43.8125 7.90625Z" fill="#3c3c3c" stroke="none"/>
</g>
<g opacity="1">
<path d="M143.344 27.6562C142.356 28.4108 141.396 29.177 140.438 29.9688C140.048 30.8049 140.414 31.7983 141.25 32.1875C142.086 32.5767 143.08 32.2111 143.469 31.375C143.457 30.1317 143.403 28.8982 143.344 27.6562Z" fill="#3c3c3c" stroke="none"/>
</g>
<g opacity="1">
<path d="M100.125 21.1875C99.3076 20.9016 98.3468 20.9356 97.4688 21.2812C95.2606 22.1505 92.6181 24.7015 92.5625 27.2188C92.52 29.1429 93.8712 30.7424 95.6562 31.3125C98.019 32.0672 100.705 31.5942 103.062 31.0625C103.835 30.8883 104.225 30.7658 104.969 30.5625C104.213 30.7016 103.813 30.7985 103.031 30.9062C102.462 30.9848 101.835 31.0493 101.25 31.0938C98.9839 31.266 94.898 31.3138 93.9688 28.6562C93.5388 27.4267 94.0157 26.3158 94.8125 25.375C94.8309 25.4049 94.8228 25.4399 94.8438 25.4688C95.8976 26.8536 97.6968 27.3566 99.375 27C101.261 26.5993 102.538 24.977 101.906 23.0312C101.595 22.0737 100.942 21.4734 100.125 21.1875ZM98.3125 23.125C98.6934 23.04 99.074 23.0245 99.3438 23.1875C99.7474 23.4314 99.8113 24.1286 99.3438 24.3438C98.6331 24.6708 97.4884 24.5681 97.0312 23.875C96.9979 23.8291 96.944 23.8216 96.9062 23.7812C97.0533 23.7039 97.1676 23.5328 97.3125 23.4688C97.5618 23.3587 97.9316 23.21 98.3125 23.125Z" fill="#3c3c3c" stroke="none"/>
</g>
<g opacity="1">
<path d="M132.25 21.75C131.433 21.4641 130.472 21.4981 129.594 21.8438C127.386 22.713 124.743 25.264 124.688 27.7812C124.645 29.7054 125.996 31.3049 127.781 31.875C130.144 32.6297 132.83 32.1567 135.188 31.625C135.96 31.4508 136.381 31.3595 137.125 31.1562C136.369 31.2954 135.938 31.361 135.156 31.4688C134.587 31.5473 133.96 31.6118 133.375 31.6562C131.109 31.8285 127.054 31.8763 126.125 29.2188C125.695 27.9899 126.141 26.878 126.938 25.9375C126.956 25.9675 126.948 26.0023 126.969 26.0312C128.023 27.4161 129.822 27.9191 131.5 27.5625C133.386 27.1618 134.694 25.5395 134.062 23.5938C133.751 22.6362 133.067 22.0359 132.25 21.75ZM130.469 23.6875C130.85 23.6025 131.23 23.587 131.5 23.75C131.904 23.9939 131.936 24.6911 131.469 24.9062C130.758 25.2333 129.613 25.1306 129.156 24.4375C129.126 24.3964 129.065 24.4117 129.031 24.375C129.19 24.2906 129.313 24.1002 129.469 24.0312C129.718 23.9212 130.088 23.7725 130.469 23.6875Z" fill="#3c3c3c" stroke="none"/>
</g>
<g opacity="1">
<path d="M57.125 21.1875C56.3076 20.9016 55.3781 20.9356 54.5 21.2812C52.2918 22.1505 49.6181 24.7015 49.5625 27.2188C49.52 29.1429 50.8712 30.7424 52.6562 31.3125C55.019 32.0672 57.7361 31.5942 60.0938 31.0625C60.8661 30.8883 61.2563 30.7658 62 30.5625C61.2442 30.7016 60.8439 30.7985 60.0625 30.9062C59.493 30.9848 58.8351 31.0493 58.25 31.0938C55.9839 31.266 51.9293 31.3138 51 28.6562C50.5701 27.4267 51.0469 26.3158 51.8438 25.375C51.8621 25.4049 51.854 25.4399 51.875 25.4688C52.9288 26.8536 54.6968 27.3566 56.375 27C58.261 26.5993 59.5695 24.977 58.9375 23.0312C58.6265 22.0737 57.9424 21.4734 57.125 21.1875ZM55.3438 23.125C55.7246 23.04 56.1052 23.0245 56.375 23.1875C56.7787 23.4314 56.8425 24.1286 56.375 24.3438C55.6644 24.6708 54.5196 24.5681 54.0625 23.875C54.0244 23.8226 53.95 23.8265 53.9062 23.7812C54.0605 23.6995 54.1918 23.5358 54.3438 23.4688C54.593 23.3587 54.9629 23.21 55.3438 23.125Z" fill="#3c3c3c" stroke="none"/>
</g>
<g opacity="1">
<g opacity="1">
<path d="M114 19.25C109.567 20.9764 106.577 25.5167 105.438 29.9688C105.251 30.8719 105.847 31.7505 106.75 31.9375C107.653 32.1245 108.532 31.5281 108.719 30.625C109.394 26.2692 110.186 21.9593 114 19.25Z" fill="#3c3c3c" stroke="none"/>
</g>
<g opacity="1">
<path d="M112.094 20.5312C111.283 20.5981 110.652 21.3142 110.719 22.125C110.968 23.9163 111.316 25.6511 111.875 27.375C112.384 28.947 113.149 30.3778 114.406 31.4375C114.407 31.5715 114.255 31.2093 114.188 31.0938C114.06 30.8763 113.937 30.6091 113.844 30.375C113.646 29.8795 113.544 29.3704 113.469 28.8438C113.262 27.3963 113.463 25.9422 113.594 24.5C113.621 24.2032 113.671 23.9226 113.688 23.625C113.704 23.332 113.652 22.4274 113.688 22.7188C114.054 25.7245 113.68 22.7454 113.656 21.9062C113.589 21.0954 112.905 20.4644 112.094 20.5312ZM114.406 31.4375C114.516 31.5303 114.568 31.6639 114.688 31.75C114.688 31.75 114.602 28.693 114.156 26.8125C113.801 25.3146 114.395 29.8981 114.406 31.4375Z" fill="#3c3c3c" stroke="none"/>
</g>
<g opacity="1">
<path d="M108.688 24.3125C107.767 24.3748 107.094 25.1736 107.156 26.0938C107.219 27.0139 108.017 27.7185 108.938 27.6562C109.819 27.3487 109.656 27.4128 109.812 27.3438C109.967 27.271 110.065 27.2189 110.188 27.1562C110.619 26.9355 111.069 26.7097 111.531 26.5625C111.763 26.4887 112.443 26.2818 112.219 26.375C111.131 26.8264 112.969 26.25 112.969 26.25C112.969 26.25 111.804 25.6239 110.844 25.2812C110.345 25.1034 111.794 25.7374 112.312 25.8438C112.564 25.8954 111.882 25.5616 111.656 25.4375C111.183 25.1768 110.711 24.9095 110.219 24.6875C109.969 24.5749 109.199 24.2708 109.438 24.4062C110.586 25.0594 109.434 24.3961 108.688 24.3125ZM109.812 27.3438C109.71 27.3923 109.474 27.4945 109.562 27.4688C110.031 27.3318 111.413 26.8278 110.938 26.9375C110.412 27.0588 110.014 27.2548 109.812 27.3438Z" fill="#3c3c3c" stroke="none"/>
</g>
</g>
<g opacity="1">
<g opacity="1">
<path d="M36.9688 18.4688C32.5359 20.1951 29.5769 24.7354 28.4375 29.1875C28.2505 30.0906 28.8156 30.9693 29.7188 31.1562C30.6219 31.3432 31.5318 30.7781 31.7188 29.875C32.3938 25.5192 33.1546 21.1781 36.9688 18.4688Z" fill="#3c3c3c" stroke="none"/>
</g>
<g opacity="1">
<path d="M35.0625 19.7812C34.2517 19.8481 33.6519 20.5329 33.7188 21.3438C33.9682 23.135 34.3163 24.8698 34.875 26.5938C35.4291 28.3034 36.1741 29.8988 37.6562 30.9688C37.6562 30.9688 37.6023 27.943 37.1562 26.0625C36.8009 24.5646 37.3946 29.1168 37.4062 30.6562C37.4073 30.7902 37.2553 30.428 37.1875 30.3125C37.0598 30.0951 36.9373 29.8591 36.8438 29.625C36.6458 29.1295 36.5128 28.5892 36.4375 28.0625C36.2306 26.615 36.4317 25.161 36.5625 23.7188C36.5894 23.4219 36.6394 23.1413 36.6562 22.8438C36.6729 22.5507 36.652 21.6462 36.6875 21.9375C37.0541 24.9433 36.6798 21.9641 36.6562 21.125C36.5894 20.3142 35.8733 19.7144 35.0625 19.7812Z" fill="#3c3c3c" stroke="none"/>
</g>
<g opacity="1">
<path d="M31.6875 23.5312C30.7673 23.5935 30.0627 24.3923 30.125 25.3125C30.1873 26.2327 30.9861 26.9373 31.9062 26.875C32.8679 26.5394 32.7329 26.5951 32.875 26.5312C33.0312 26.4597 33.0853 26.4272 33.1875 26.375C33.6193 26.1543 34.0379 25.9285 34.5 25.7812C34.7316 25.7075 35.4433 25.5006 35.2188 25.5938C34.1307 26.0451 35.9375 25.4687 35.9375 25.4688C35.9375 25.4688 34.7731 24.8426 33.8125 24.5C33.3138 24.3221 34.7938 24.9561 35.3125 25.0625C35.5645 25.1142 34.8503 24.7803 34.625 24.6562C34.1517 24.3955 33.6802 24.1282 33.1875 23.9062C32.9376 23.7936 32.1992 23.4895 32.4375 23.625C33.5862 24.2781 32.4341 23.6148 31.6875 23.5312ZM32.875 26.5312C32.7188 26.6028 32.4524 26.7197 32.5625 26.6875C33.0308 26.5506 34.413 26.0465 33.9375 26.1562C33.4492 26.2689 33.0308 26.4612 32.875 26.5312Z" fill="#3c3c3c" stroke="none"/>
</g>
</g>
<g opacity="1">
<g opacity="1">
<path d="M119.969 18.9688C119.164 18.7717 118.353 19.2887 118.156 20.0938C117.31 24.467 118.018 28.2894 120.062 32.2188C119.673 30.5723 119.399 28.9496 119.5 27.25C119.632 25.0325 120.429 22.8913 121.062 20.7812C121.26 19.9762 120.774 19.1658 119.969 18.9688Z" fill="#3c3c3c" stroke="none"/>
</g>
<g opacity="1">
<path d="M126.219 19.5C126.219 19.5 124.971 19.9347 124.469 20.1875C124.438 20.2369 124.381 20.293 124.344 20.3438C124.408 20.3677 124.492 20.3913 124.938 20.3125C125.43 20.2254 124.124 20.8015 123.656 21.0938C123.943 20.8396 124.152 20.6019 124.344 20.3438C124.283 20.3213 124.317 20.2637 124.469 20.1875C124.533 20.0835 124.727 19.9701 124.75 19.875C124.872 19.3709 123.75 20.1451 123.25 20.2812C122.741 20.4196 122.226 20.5739 121.719 20.7188C120.526 21.0596 119.001 21.5285 117.844 22.2812C117.825 22.2901 117.788 22.3092 117.781 22.3125C117.74 22.3321 117.61 22.3445 117.656 22.3438C117.688 22.3432 117.719 22.3456 117.75 22.3438C117.515 22.5043 117.181 22.5872 117 22.7812C116.34 23.4904 116.721 24.658 117.531 25.0625C117.927 25.2601 118.835 25.1997 119.219 24.9062C119.86 24.416 119.634 24.5945 119.719 24.5312C119.932 24.3472 120.105 24.1702 120.188 23.9062C121.294 22.9439 122.367 21.9502 123.625 21.125C122.873 21.7849 122.182 22.3403 122.781 22.1875C124.147 21.8393 126.219 19.5 126.219 19.5Z" fill="#3c3c3c" stroke="none"/>
</g>
</g>
<g opacity="1">
<path d="M70.2188 21C68.7579 20.9517 67.2395 21.9712 66.9375 23.4375C66.8641 23.794 66.9557 24.146 67.0312 24.5C67.2712 24.495 67.4928 24.5241 67.5625 24.75C67.6473 25.0248 67.5423 25.193 67.3438 25.3438C68.2459 26.741 70.1017 26.8392 71.5312 27.4375C72.9974 28.0511 72.3875 29.5854 71.4062 30.3438C69.3047 31.968 67.3644 30.7171 65.9688 28.875C65.5512 28.3239 65.2021 27.7187 64.9062 27.0938C64.7981 26.8653 64.41 26.5392 64.625 26.4062C64.6095 26.4184 64.5771 26.4248 64.5625 26.4375C64.3697 26.6054 64.6933 26.9162 64.7812 27.1562C65.0744 27.9568 65.4536 28.7353 65.9375 29.4375C67.4232 31.5934 69.551 32.6642 71.9688 31.1562C73.9059 29.948 74.4014 27.4093 72.2188 26.0938C71.4707 25.6429 70.61 25.3804 69.8125 25.0312C69.5502 24.9164 69.2444 24.7631 69.0938 24.5C69.0807 24.4773 69.1041 24.4601 69.0938 24.4375C68.8456 24.6293 68.7483 24.6136 68.5 24.0625C67.9029 22.7374 71.1583 22.8263 72.375 22.0312C72.4995 21.9499 72.1745 21.8166 72.0625 21.7188C71.9552 21.625 71.8382 21.5463 71.7188 21.4688C71.2656 21.1748 70.7578 21.0178 70.2188 21ZM69.0938 24.4375C69.2302 24.3321 69.8294 24.0675 70.1562 23.8125C69.6566 23.9307 69.2054 24.0536 70.5938 23.5312C70.606 23.5266 70.3956 23.355 70.375 23.3438C70.1921 23.2444 69.9458 23.2631 69.75 23.3125C69.2432 23.4404 68.8554 23.9175 69.0938 24.4375ZM70.5938 23.5312C70.4725 23.6169 70.2531 23.737 70.1562 23.8125C70.3941 23.7562 70.68 23.661 70.7188 23.7188C71.0984 24.2418 71.8207 24.3484 72.3438 23.9688C72.8668 23.5891 72.9734 22.8668 72.5938 22.3438C71.3704 22.8533 71.1361 23.1481 70.5938 23.5312ZM64.625 26.4062C65.3 25.8746 66.7615 25.786 67.3438 25.3438C67.2693 25.2285 67.154 25.1662 67.0938 25.0312C67.0193 24.8645 67.0692 24.6775 67.0312 24.5C66.1286 24.5189 64.4062 25.75 64.4062 25.75C64.4062 25.75 67.168 24.8337 64.625 26.4062Z" fill="#3c3c3c" stroke="none"/>
</g>
<g opacity="1">
<path d="M18.8125 8.5625C15.1734 8.44227 11.4731 11.5497 11.875 15.375C12.2925 19.3482 16.0161 20.5235 19.3125 21.375C21.6223 21.9717 23.8587 22.4857 23.3125 25.2812C23.0416 26.6676 22.1378 27.6524 21 28.4375C18.8944 29.8904 16.6389 30.2518 14.3125 29.0312C10.5638 27.0645 7.77198 22.5388 6.65625 18.5625C7.37001 22.4305 9.33084 26.3804 12.2812 29.0312C14.9014 31.3853 17.8669 32.1101 21.0938 30.6562C21.9261 30.2812 22.7537 29.8207 23.4688 29.25C24.2386 28.6356 24.9008 27.885 25.3438 27C26.3673 24.9553 26.4345 22.4289 24.8438 20.6562C23.84 19.5378 22.4503 18.8932 21.0938 18.3125C20.0837 17.8801 19.0655 17.4801 18.0625 17.0312C17.5132 16.7855 16.8624 16.5096 16.5 16C15.4362 14.504 17.5945 12.9441 19 13.4375C19.3932 13.5756 19.6293 13.8818 19.8438 14.2188C20.6057 15.3403 22.1284 15.637 23.25 14.875C24.3716 14.113 24.6682 12.5903 23.9062 11.4688C22.7093 9.77105 20.9395 8.63277 18.8125 8.5625Z" fill="#3c3c3c" stroke="none"/>
</g>
<g opacity="1">
<g opacity="1">
<path d="M79.9062 24.125C79.5531 24.0201 79.162 24.0606 78.8125 24.25C78.1136 24.6288 77.8712 25.4886 78.25 26.1875C79.2574 27.8896 80.2033 29.6677 80.875 31.5312C81.8657 34.2799 82.1856 37.262 82.6875 40.125C82.7528 36.1197 83.1117 31.983 82.0938 28.0625C81.8005 26.9329 81.2981 25.8841 80.7812 24.8438C80.5918 24.4943 80.2594 24.2299 79.9062 24.125Z" fill="#3c3c3c" stroke="none"/>
</g>
<g opacity="1">
<path d="M83.4062 20.8125C82.534 20.8453 81.6614 21.0916 80.875 21.5625C79.8931 22.1505 79.1374 22.9982 78.6562 24.0312C78.5985 24.1552 78.5499 24.3102 78.5 24.4375C78.4484 24.569 78.4699 24.4142 78.2188 25.1875C78.0119 25.9551 78.4824 26.7619 79.25 26.9688C79.3053 26.9836 79.351 26.9293 79.4062 26.9375C79.3894 27.1728 79.3455 27.4253 79.375 27.6562C79.4944 28.5898 79.8741 29.4024 80.625 30C81.3362 30.566 82.2568 30.825 83.1562 30.8438C86.1376 30.9059 88.536 28.3684 88.5625 25.4375C88.5894 22.4641 86.023 20.7142 83.4062 20.8125ZM83.2812 23.375C83.8743 23.209 84.5087 23.2082 85.0625 23.4062C86.9929 24.0966 87.3844 26.427 86.3438 28.0625C85.6274 29.1884 84.4678 29.9372 83.125 30.0625C81.7012 30.1953 80.2598 29.5537 79.75 28.1562C79.6064 27.7626 79.6115 27.3234 79.5938 26.9062C80.2333 26.9118 80.8258 26.5838 81 25.9375C81.0708 25.6444 80.8548 25.7527 81.0938 25.6562C81.2409 25.5968 81.1896 25.3343 81.25 25.1875C81.3818 24.8671 81.5579 24.5786 81.7812 24.3125C82.1578 23.8638 82.6882 23.541 83.2812 23.375Z" fill="#3c3c3c" stroke="none"/>
</g>
</g>
<g opacity="1">
<path d="M151.219 25.8438C151.058 25.7181 150.823 25.9172 150.625 25.9688C150.057 26.1169 149.479 26.4008 149.031 26.7812C147.9 27.7411 147.447 29.3461 148.312 30.625C149.36 32.1723 151.418 31.5723 152.812 30.9375C153.124 30.7955 153.514 30.6089 153.812 30.4375C153.946 30.361 154.25 30.3277 154.188 30.1875C153.895 29.5354 153.98 29.5611 154.094 29.625C153.706 29.2844 153.172 28.8543 153.094 29.1562C152.975 29.6146 153.922 29.7139 154.156 30.125C154.231 30.2567 153.864 30.2054 153.719 30.25C153.398 30.3486 153.015 30.4633 152.688 30.5312C151.891 30.6966 150.575 30.9353 149.844 30.375C148.959 29.6973 149.954 28.7652 150.625 28.5C150.776 28.4405 151.239 28.2305 151.406 28.3125C152.46 28.8302 151.383 28.3168 151.688 28.3438C152.216 28.3526 152.59 27.9919 152.781 27.5312C152.275 26.9582 151.82 26.3125 151.219 25.8438ZM152.781 27.5312C152.893 27.658 153.004 27.7892 153.125 27.9062C153.256 28.0322 152.791 27.4553 152.812 27.4688C152.805 27.4914 152.79 27.5092 152.781 27.5312ZM152.812 27.4688C152.855 27.346 152.966 27.2621 152.969 27.125C152.98 26.4337 152.441 25.8553 151.75 25.8438C152.832 27.4628 152.891 27.5173 152.812 27.4688ZM154.094 29.625C154.266 29.7765 154.5 29.9688 154.5 29.9688C154.5 29.9688 154.244 29.7097 154.094 29.625Z" fill="#3c3c3c" stroke="none"/>
</g>
<g opacity="1">
<path d="M157.969 25.875C157.657 25.8029 157.324 25.8481 157.031 26.0312C156.961 26.1165 157.022 26.0603 156.969 26.125C156.636 26.2542 156.347 26.4567 156.125 26.75C156.089 26.7976 156.033 26.8257 156 26.875C155.907 27.015 155.825 27.1628 155.75 27.3125C155.706 27.401 155.555 27.6642 155.625 27.5938C156.116 27.0966 155.5 27.9063 155.5 27.9062C155.45 28.0402 155.343 28.1411 155.312 28.2812C154.899 30.1999 156.893 32.0888 158.719 31.0312C160.12 30.2194 159.853 27.8759 158.781 26.6875C158.752 26.6047 158.799 26.5152 158.75 26.4375C158.567 26.1443 158.281 25.9471 157.969 25.875ZM158.375 28.0938C158.41 28.3455 158.522 28.6216 158.5 28.8125C158.472 29.0536 158.395 29.4348 158.125 29.5312C157.75 29.665 157.425 29.359 157.469 29.0312C157.491 28.8624 157.729 28.5956 157.875 28.4688C157.955 28.3988 158.23 28.3015 158.125 28.2812C157.254 28.1129 158.126 28.2779 158.344 28.1562C158.365 28.1431 158.355 28.1079 158.375 28.0938Z" fill="#3c3c3c" stroke="none"/>
</g>
<g opacity="1">
<path d="M171.812 22.9062C170.257 22.9844 169.653 24.1751 169.031 25.4062C168.843 25.7792 168.493 26.8645 167.906 26.875C167.385 26.8843 167.057 26.3671 166.719 26.0312C166.303 25.6193 165.831 25.2196 165.25 25.0625C162.741 24.3839 161.371 28.2602 161.25 30.0938C161.217 30.7843 161.747 31.3729 162.438 31.4062C163.128 31.4396 163.717 30.9093 163.75 30.2188C163.764 29.6677 163.821 29.1711 164.031 28.6562C164.226 28.1774 164.536 27.8165 164.812 27.4062C165.1 27.5684 165.385 27.8162 165.625 28C166.554 28.7124 167.716 29.208 168.844 28.625C170.154 27.9476 170.363 26.3407 170.906 25.125C171.002 24.9104 171.081 24.695 171.25 24.5312C171.409 24.377 171.643 24.313 171.844 24.2188C172.23 24.037 173.375 24.5699 173.656 24.7188C174.758 25.3026 175.716 26.0998 176.938 26.4375C179.786 27.2251 183.288 25.8827 185.969 24.9688C183.372 25.6169 179.804 26.6712 177.188 25.6875C175.399 25.0154 173.896 22.8016 171.812 22.9062Z" fill="#3c3c3c" stroke="none"/>
</g>
</g>
</g>
</svg>
