<?xml version="1.0" encoding="UTF-8" standalone="no"?>
<!DOCTYPE svg PUBLIC "-//W3C//DTD SVG 1.1//EN" "http://www.w3.org/Graphics/SVG/1.1/DTD/svg11.dtd">
<!-- Created with Vectornator (http://vectornator.io/) -->
<svg height="100%" stroke-miterlimit="10" style="fill-rule:nonzero;clip-rule:evenodd;stroke-linecap:round;stroke-linejoin:round;" version="1.1" viewBox="0 0 118.528 101.405" width="100%" xml:space="preserve" xmlns="http://www.w3.org/2000/svg" xmlns:vectornator="http://vectornator.io" xmlns:xlink="http://www.w3.org/1999/xlink">
<defs/>
<clipPath id="ArtboardFrame">
<rect height="101.405" width="118.528" x="0" y="0"/>
</clipPath>
<g clip-path="url(#ArtboardFrame)" id="Layer-1" vectornator:layerName="Layer 1">
<g opacity="1" vectornator:layerName="Group 1">
<path d="M52.9928 111.086C51.9807 110.821 50.9571 111.392 50.6914 112.404C50.3166 113.985 49.9604 115.588 49.7111 117.194C49.4967 118.576 49.3739 119.983 49.2965 121.379C49.2168 122.817 49.2492 124.268 49.3433 125.705C49.6439 130.294 50.9761 136.081 56.0402 137.53C57.1558 137.849 58.2583 137.884 59.4094 137.84C58.2889 137.742 57.2233 137.585 56.181 137.14C50.8301 134.855 51.2079 127.803 52.0312 123.074C52.185 122.19 52.3247 121.289 52.5207 120.413C52.8018 119.157 53.1171 117.9 53.4328 116.652C53.7104 115.555 54.0323 114.475 54.3462 113.388C54.6119 112.376 54.0049 111.352 52.9928 111.086Z" fill="#fdfef8" fill-rule="nonzero" opacity="1" stroke="none" vectornator:layerName="path"/>
<path d="M165.984 133.201C164.865 134.061 163.778 134.933 162.694 135.834C162.254 136.784 162.672 137.91 163.621 138.349C164.571 138.788 165.698 138.37 166.137 137.421C166.12 136.01 166.055 134.61 165.984 133.201Z" fill="#fdfef8" fill-rule="nonzero" opacity="1" stroke="none" vectornator:layerName="path"/>
<path d="M116.927 125.99C115.998 125.668 114.908 125.709 113.913 126.104C111.41 127.097 108.419 129.999 108.364 132.855C108.321 135.039 109.859 136.849 111.886 137.491C114.569 138.34 117.616 137.796 120.288 137.185C121.165 136.986 121.607 136.845 122.451 136.612C121.593 136.773 121.14 136.884 120.253 137.008C119.607 137.099 118.896 137.174 118.232 137.226C115.662 137.428 111.026 137.495 109.964 134.482C109.472 133.088 110.01 131.826 110.911 130.757C110.932 130.79 110.923 130.83 110.947 130.863C112.147 132.431 114.19 132.996 116.093 132.587C118.232 132.127 119.676 130.282 118.953 128.076C118.597 126.991 117.855 126.311 116.927 125.99ZM114.876 128.193C115.308 128.096 115.74 128.077 116.046 128.261C116.505 128.537 116.579 129.328 116.05 129.573C115.244 129.946 113.945 129.833 113.424 129.048C113.386 128.996 113.325 128.988 113.282 128.942C113.449 128.854 113.578 128.659 113.742 128.586C114.025 128.461 114.444 128.291 114.876 128.193Z" fill="#fdfef8" fill-rule="nonzero" opacity="1" stroke="none" vectornator:layerName="path"/>
<path d="M153.379 126.533C152.451 126.211 151.361 126.252 150.365 126.647C147.863 127.64 144.871 130.542 144.816 133.398C144.773 135.582 146.311 137.393 148.338 138.034C151.021 138.884 154.068 138.339 156.742 137.729C157.617 137.529 158.094 137.424 158.938 137.191C158.081 137.351 157.592 137.427 156.705 137.552C156.059 137.642 155.348 137.717 154.685 137.769C152.114 137.972 147.513 138.038 146.451 135.025C145.96 133.632 146.462 132.369 147.364 131.3C147.384 131.334 147.375 131.373 147.399 131.406C148.599 132.974 150.642 133.54 152.545 133.13C154.684 132.67 156.163 130.825 155.44 128.619C155.085 127.534 154.307 126.855 153.379 126.533ZM151.364 128.736C151.796 128.639 152.227 128.62 152.534 128.804C152.993 129.08 153.031 129.871 152.502 130.116C151.696 130.49 150.397 130.376 149.876 129.591C149.842 129.545 149.773 129.562 149.734 129.521C149.914 129.425 150.053 129.208 150.23 129.129C150.512 129.004 150.932 128.834 151.364 128.736Z" fill="#fdfef8" fill-rule="nonzero" opacity="1" stroke="none" vectornator:layerName="path"/>
<path d="M68.137 126.117C67.2087 125.795 66.1542 125.836 65.1588 126.231C62.6559 127.224 59.6297 130.126 59.5741 132.982C59.5316 135.166 61.0694 136.977 63.0964 137.618C65.7796 138.467 68.8612 137.923 71.5347 137.312C72.4105 137.113 72.8529 136.972 73.6961 136.74C72.839 136.9 72.385 137.011 71.4988 137.135C70.8528 137.226 70.1065 137.301 69.4428 137.353C66.8721 137.556 62.2717 137.622 61.2094 134.609C60.718 133.215 61.2557 131.953 62.1571 130.884C62.178 130.917 62.1689 130.957 62.1928 130.99C63.3926 132.558 65.4001 133.124 67.3032 132.714C69.442 132.254 70.9218 130.409 70.199 128.203C69.8433 127.118 69.0653 126.439 68.137 126.117ZM66.1217 128.32C66.5535 128.223 66.9853 128.204 67.2919 128.388C67.7507 128.664 67.8252 129.455 67.2954 129.7C66.49 130.073 65.1908 129.96 64.6701 129.175C64.6267 129.116 64.5423 129.12 64.4925 129.069C64.6673 128.976 64.8158 128.79 64.9881 128.713C65.2705 128.588 65.6898 128.418 66.1217 128.32Z" fill="#fdfef8" fill-rule="nonzero" opacity="1" stroke="none" vectornator:layerName="path"/>
<g opacity="1" vectornator:layerName="g">
<path d="M132.664 123.75C127.639 125.722 124.26 130.883 122.981 135.937C122.772 136.963 123.45 137.958 124.476 138.167C125.501 138.377 126.496 137.698 126.706 136.672C127.459 131.728 128.345 126.835 132.664 123.75Z" fill="#fdfef8" fill-rule="nonzero" opacity="1" stroke="none" vectornator:layerName="path"/>
<path d="M130.505 125.209C129.585 125.288 128.871 126.102 128.95 127.022C129.238 129.054 129.638 131.021 130.277 132.975C130.859 134.758 131.731 136.379 133.161 137.577C133.162 137.729 132.989 137.319 132.912 137.188C132.767 136.942 132.626 136.639 132.52 136.374C132.294 135.812 132.177 135.235 132.09 134.637C131.851 132.995 132.075 131.345 132.219 129.708C132.249 129.371 132.305 129.053 132.323 128.715C132.34 128.383 132.279 127.356 132.32 127.687C132.745 131.096 132.311 127.717 132.282 126.765C132.203 125.845 131.425 125.131 130.505 125.209ZM133.161 137.577C133.286 137.682 133.345 137.834 133.482 137.931C133.482 137.931 133.375 134.463 132.864 132.33C132.456 130.632 133.144 135.831 133.161 137.577Z" fill="#fdfef8" fill-rule="nonzero" opacity="1" stroke="none" vectornator:layerName="path"/>
<path d="M126.652 129.51C125.607 129.583 124.846 130.492 124.919 131.536C124.993 132.579 125.901 133.377 126.945 133.303C127.944 132.952 127.759 133.025 127.936 132.946C128.112 132.863 128.223 132.804 128.362 132.732C128.851 132.48 129.361 132.223 129.884 132.055C130.147 131.97 130.918 131.733 130.664 131.84C129.431 132.355 131.515 131.696 131.515 131.696C131.515 131.696 130.191 130.989 129.101 130.603C128.534 130.402 130.18 131.118 130.768 131.237C131.054 131.295 130.28 130.918 130.023 130.778C129.485 130.483 128.949 130.181 128.39 129.931C128.106 129.804 127.232 129.461 127.503 129.614C128.808 130.352 127.499 129.603 126.652 129.51ZM127.936 132.946C127.821 133.001 127.553 133.118 127.653 133.089C128.185 132.932 129.751 132.356 129.213 132.482C128.616 132.621 128.165 132.845 127.936 132.946Z" fill="#fdfef8" fill-rule="nonzero" opacity="1" stroke="none" vectornator:layerName="path"/>
</g>
<g opacity="1" vectornator:layerName="g">
<path d="M45.2589 123.091C40.2342 125.063 36.8902 130.224 35.6106 135.279C35.401 136.304 36.0448 137.299 37.0702 137.509C38.0954 137.718 39.1262 137.074 39.3357 136.049C40.0887 131.105 40.9391 126.177 45.2589 123.091Z" fill="#fdfef8" fill-rule="nonzero" opacity="1" stroke="none" vectornator:layerName="path"/>
<path d="M43.0998 124.586C42.18 124.665 41.5015 125.443 41.5798 126.363C41.868 128.395 42.2681 130.362 42.9072 132.317C43.5409 134.255 44.3909 136.063 46.0758 137.272C46.0758 137.272 46.0057 133.839 45.4939 131.707C45.0864 130.009 45.7735 135.172 45.7912 136.919C45.7928 137.071 45.6193 136.66 45.542 136.529C45.3965 136.283 45.2568 136.015 45.15 135.75C44.9239 135.189 44.7714 134.576 44.6844 133.978C44.4453 132.337 44.6692 130.686 44.8134 129.05C44.843 128.713 44.8989 128.394 44.9171 128.056C44.9352 127.724 44.9088 126.698 44.9499 127.028C45.3748 130.437 44.9413 127.058 44.912 126.106C44.8338 125.186 44.0195 124.508 43.0998 124.586Z" fill="#fdfef8" fill-rule="nonzero" opacity="1" stroke="none" vectornator:layerName="path"/>
<path d="M39.2814 128.851C38.2375 128.925 37.4404 129.833 37.5138 130.877C37.5872 131.921 38.4957 132.718 39.5395 132.644C40.6297 132.261 40.4766 132.324 40.6377 132.252C40.8147 132.17 40.876 132.133 40.9918 132.073C41.4811 131.822 41.9554 131.564 42.4793 131.396C42.7418 131.311 43.5487 131.075 43.2943 131.181C42.061 131.696 44.1094 131.037 44.1094 131.037C44.1094 131.037 42.7864 130.33 41.6954 129.944C41.129 129.744 42.8102 130.459 43.399 130.578C43.6851 130.636 42.8738 130.259 42.6178 130.119C42.08 129.824 41.5442 129.523 40.9845 129.272C40.7006 129.145 39.8619 128.802 40.1327 128.955C41.438 129.693 40.1288 128.944 39.2814 128.851ZM40.6377 132.252C40.4607 132.333 40.1587 132.467 40.2836 132.43C40.8145 132.273 42.3813 131.697 41.8421 131.823C41.2884 131.952 40.8143 132.172 40.6377 132.252Z" fill="#fdfef8" fill-rule="nonzero" opacity="1" stroke="none" vectornator:layerName="path"/>
</g>
<g opacity="1" vectornator:layerName="g">
<path d="M139.436 123.413C138.522 123.192 137.603 123.781 137.382 124.695C136.435 129.66 137.25 133.995 139.581 138.447C139.134 136.58 138.819 134.74 138.928 132.811C139.072 130.295 139.97 127.863 140.682 125.467C140.904 124.553 140.35 123.635 139.436 123.413Z" fill="#fdfef8" fill-rule="nonzero" opacity="1" stroke="none" vectornator:layerName="path"/>
<path d="M146.529 123.998C146.529 123.998 145.114 124.495 144.546 124.783C144.51 124.839 144.446 124.903 144.404 124.961C144.477 124.988 144.572 125.014 145.078 124.923C145.636 124.823 144.156 125.481 143.626 125.814C143.951 125.524 144.187 125.254 144.404 124.961C144.335 124.935 144.373 124.87 144.546 124.783C144.618 124.665 144.838 124.535 144.863 124.428C145 123.855 143.73 124.737 143.163 124.893C142.586 125.051 142.002 125.228 141.427 125.394C140.074 125.784 138.345 126.321 137.035 127.178C137.013 127.188 136.971 127.21 136.963 127.214C136.917 127.236 136.769 127.251 136.822 127.25C136.858 127.249 136.893 127.252 136.928 127.249C136.662 127.432 136.283 127.527 136.079 127.748C135.332 128.555 135.768 129.878 136.688 130.335C137.138 130.558 138.168 130.487 138.603 130.152C139.328 129.594 139.073 129.798 139.169 129.726C139.41 129.516 139.606 129.315 139.699 129.015C140.951 127.92 142.166 126.789 143.591 125.849C142.739 126.6 141.957 127.232 142.636 127.057C144.185 126.658 146.529 123.998 146.529 123.998Z" fill="#fdfef8" fill-rule="nonzero" opacity="1" stroke="none" vectornator:layerName="path"/>
</g>
<path d="M82.9933 125.865C81.3355 125.815 79.6157 126.976 79.2774 128.641C79.1951 129.045 79.3001 129.444 79.3868 129.846C79.6591 129.839 79.9106 129.872 79.9904 130.128C80.0874 130.439 79.9688 130.631 79.744 130.802C80.7717 132.385 82.8777 132.491 84.5014 133.166C86.1668 133.857 85.4793 135.6 84.3682 136.464C81.9885 138.313 79.7833 136.899 78.1943 134.813C77.7188 134.189 77.3209 133.503 76.9834 132.795C76.86 132.536 76.4187 132.167 76.6623 132.016C76.6447 132.03 76.608 132.037 76.5914 132.052C76.3732 132.243 76.7413 132.594 76.8417 132.866C77.1768 133.774 77.6093 134.656 78.1604 135.451C79.8526 137.893 82.27 139.102 85.0089 137.384C87.2033 136.007 87.758 133.125 85.2776 131.639C84.4274 131.13 83.4501 130.834 82.5442 130.44C82.2462 130.311 81.8988 130.138 81.7271 129.84C81.7122 129.814 81.7387 129.794 81.7269 129.769C81.4459 129.987 81.3354 129.97 81.0521 129.345C80.3707 127.843 84.0647 127.935 85.4428 127.029C85.5838 126.936 85.2147 126.786 85.0873 126.675C84.9653 126.569 84.8323 126.48 84.6966 126.393C84.1815 126.06 83.6049 125.884 82.9933 125.865ZM81.7269 129.769C81.8814 129.649 82.5605 129.347 82.9305 129.057C82.364 129.192 81.8524 129.333 83.4262 128.736C83.4401 128.731 83.2008 128.537 83.1774 128.524C82.9696 128.412 82.6902 128.434 82.4682 128.49C81.8935 128.637 81.4549 129.18 81.7269 129.769ZM83.4262 128.736C83.2889 128.834 83.0403 128.971 82.9305 129.057C83.2003 128.992 83.5244 128.883 83.5686 128.949C84.0009 129.541 84.8207 129.66 85.4132 129.227C86.0054 128.795 86.1243 127.975 85.692 127.383C84.3054 127.965 84.0404 128.3 83.4262 128.736ZM76.6623 132.016C77.4266 131.411 79.0846 131.306 79.744 130.802C79.6591 130.672 79.5281 130.601 79.4594 130.448C79.3744 130.259 79.4305 130.047 79.3868 129.846C78.3627 129.87 76.4121 131.272 76.4121 131.272C76.4121 131.272 79.543 130.224 76.6623 132.016Z" fill="#fdfef8" fill-rule="nonzero" opacity="1" stroke="none" vectornator:layerName="path"/>
<path d="M24.6286 111.905C20.4992 111.779 16.3099 115.316 16.7772 119.655C17.2626 124.162 21.4911 125.485 25.2338 126.441C27.8564 127.111 30.3954 127.688 29.784 130.861C29.4807 132.435 28.4581 133.555 27.1694 134.45C24.7846 136.104 22.2265 136.521 19.5832 135.143C15.324 132.923 12.1429 127.796 10.8652 123.287C11.6865 127.674 13.923 132.15 17.2784 135.149C20.2584 137.812 23.6253 138.626 27.2824 136.967C28.2257 136.539 29.1633 136.014 29.973 135.364C30.8447 134.665 31.5938 133.811 32.0938 132.806C33.2491 130.483 33.3179 127.616 31.5078 125.609C30.3655 124.343 28.7868 123.616 27.2459 122.961C26.0985 122.473 24.9421 122.023 23.8027 121.516C23.1787 121.239 22.4395 120.928 22.0268 120.351C20.8153 118.656 23.2596 116.88 24.8558 117.436C25.3023 117.591 25.5711 117.938 25.8155 118.32C26.6833 119.59 28.4119 119.922 29.6823 119.054C30.9526 118.186 31.2847 116.458 30.4168 115.188C29.0537 113.265 27.0422 111.978 24.6286 111.905Z" fill="#fdfef8" fill-rule="nonzero" opacity="1" stroke="none" vectornator:layerName="path"/>
<g opacity="1" vectornator:layerName="g">
<path d="M93.9942 129.382C93.5933 129.264 93.1497 129.311 92.7537 129.527C91.9618 129.959 91.6893 130.936 92.1211 131.727C93.2692 133.656 94.3477 135.67 95.1154 137.783C96.2476 140.899 96.6194 144.281 97.1973 147.528C97.2596 142.984 97.6546 138.289 96.488 133.844C96.1519 132.563 95.5788 131.374 94.9892 130.195C94.7732 129.799 94.3953 129.5 93.9942 129.382Z" fill="#fdfef8" fill-rule="nonzero" opacity="1" stroke="none" vectornator:layerName="path"/>
<path d="M97.9557 125.613C96.9662 125.653 95.9768 125.935 95.0859 126.472C93.9735 127.142 93.1186 128.106 92.5757 129.28C92.5106 129.42 92.4559 129.596 92.3996 129.741C92.3415 129.89 92.3654 129.715 92.0828 130.593C91.8503 131.464 92.3865 132.378 93.2581 132.611C93.3209 132.628 93.3726 132.566 93.4352 132.575C93.4169 132.842 93.3678 133.129 93.402 133.391C93.5402 134.449 93.9734 135.37 94.8272 136.046C95.6358 136.686 96.6811 136.977 97.7017 136.996C101.085 137.058 103.799 134.172 103.82 130.846C103.842 127.472 100.925 125.494 97.9557 125.613ZM97.8215 128.521C98.4939 128.331 99.2137 128.328 99.8427 128.551C102.035 129.329 102.486 131.972 101.31 133.831C100.501 135.111 99.1872 135.964 97.664 136.11C96.0489 136.265 94.4115 135.541 93.8289 133.957C93.6648 133.511 93.6693 133.012 93.648 132.539C94.3736 132.543 95.0449 132.169 95.2407 131.436C95.3201 131.103 95.0754 131.226 95.3463 131.116C95.513 131.048 95.454 130.751 95.5221 130.584C95.6707 130.22 95.8697 129.892 96.1223 129.59C96.5482 129.079 97.1491 128.711 97.8215 128.521Z" fill="#fdfef8" fill-rule="nonzero" opacity="1" stroke="none" vectornator:layerName="path"/>
</g>
<path d="M174.914 131.122C174.731 130.98 174.465 131.206 174.24 131.265C173.596 131.435 172.941 131.759 172.434 132.192C171.154 133.284 170.644 135.107 171.63 136.555C172.823 138.308 175.157 137.621 176.737 136.897C177.09 136.735 177.532 136.522 177.87 136.326C178.022 136.239 178.366 136.2 178.296 136.041C177.961 135.302 178.058 135.331 178.187 135.404C177.746 135.018 177.139 134.532 177.051 134.875C176.918 135.395 177.992 135.505 178.259 135.971C178.345 136.12 177.928 136.063 177.764 136.114C177.4 136.227 176.965 136.358 176.595 136.436C175.691 136.626 174.198 136.901 173.367 136.267C172.361 135.501 173.487 134.44 174.248 134.137C174.419 134.069 174.944 133.83 175.133 133.922C176.331 134.507 175.107 133.927 175.454 133.957C176.053 133.965 176.476 133.555 176.691 133.032C176.115 132.383 175.597 131.652 174.914 131.122ZM176.691 133.032C176.819 133.175 176.945 133.324 177.083 133.456C177.232 133.599 176.702 132.946 176.726 132.961C176.718 132.986 176.701 133.007 176.691 133.032ZM176.726 132.961C176.775 132.821 176.9 132.726 176.903 132.57C176.914 131.786 176.301 131.131 175.516 131.12C176.749 132.954 176.816 133.016 176.726 132.961ZM178.187 135.404C178.383 135.575 178.649 135.792 178.649 135.792C178.649 135.792 178.358 135.499 178.187 135.404Z" fill="#fdfef8" fill-rule="nonzero" opacity="1" stroke="none" vectornator:layerName="path"/>
<path d="M182.573 131.137C182.219 131.056 181.841 131.109 181.509 131.317C181.43 131.414 181.499 131.35 181.439 131.424C181.062 131.571 180.734 131.802 180.483 132.135C180.443 132.19 180.379 132.222 180.342 132.278C180.237 132.437 180.144 132.605 180.059 132.775C180.01 132.875 179.839 133.174 179.918 133.094C180.474 132.529 179.777 133.449 179.777 133.449C179.721 133.601 179.6 133.716 179.565 133.875C179.102 136.053 181.37 138.191 183.439 136.985C185.026 136.06 184.716 133.402 183.497 132.057C183.463 131.963 183.517 131.861 183.461 131.773C183.252 131.441 182.927 131.218 182.573 131.137ZM183.04 133.654C183.081 133.939 183.208 134.252 183.184 134.469C183.153 134.742 183.067 135.175 182.761 135.285C182.336 135.438 181.966 135.092 182.015 134.72C182.039 134.528 182.309 134.225 182.474 134.08C182.564 134.001 182.876 133.89 182.757 133.867C181.768 133.679 182.758 133.863 183.005 133.724C183.029 133.709 183.017 133.67 183.04 133.654Z" fill="#fdfef8" fill-rule="nonzero" opacity="1" stroke="none" vectornator:layerName="path"/>
<path d="M198.271 127.728C196.507 127.821 195.825 129.174 195.123 130.573C194.911 130.996 194.517 132.229 193.851 132.242C193.26 132.255 192.886 131.669 192.502 131.289C192.028 130.822 191.492 130.37 190.832 130.194C187.983 129.431 186.44 133.833 186.308 135.914C186.273 136.698 186.876 137.364 187.66 137.4C188.443 137.436 189.11 136.832 189.145 136.049C189.159 135.423 189.223 134.86 189.459 134.275C189.679 133.731 190.03 133.321 190.342 132.854C190.669 133.037 190.993 133.318 191.266 133.526C192.322 134.331 193.642 134.89 194.92 134.225C196.405 133.453 196.637 131.629 197.25 130.248C197.358 130.004 197.447 129.76 197.638 129.573C197.818 129.398 198.083 129.324 198.311 129.217C198.749 129.01 200.049 129.611 200.369 129.779C201.621 130.438 202.71 131.34 204.098 131.719C207.331 132.605 211.301 131.071 214.34 130.026C211.396 130.769 207.35 131.976 204.379 130.868C202.347 130.11 200.635 127.603 198.271 127.728Z" fill="#fdfef8" fill-rule="nonzero" opacity="1" stroke="none" vectornator:layerName="path"/>
</g>
<g opacity="1" vectornator:layerName="Group 2">
<g opacity="1">
<path d="M105.07 53.0832C116.11 42.0431 116.11 24.1439 105.07 13.1043C94.0295 2.06458 76.1303 2.06489 65.0906 13.105C54.0509 24.145 54.0513 42.0442 65.0913 53.0839C76.1314 64.1236 94.0306 64.1232 105.07 53.0832Z" fill="#ffffff" fill-rule="nonzero" opacity="1" stroke="none" vectornator:layerName="path"/>
<path d="M111.344 22.8497L109.871 22.8497L109.134 22.0565L108.964 20.7535L108.228 21.2068L107.831 22.793L106.755 21.6033L106.698 20.5269L105.622 19.6205L105.225 19.2239L103.979 19.2239L104.376 20.3003L105.849 21.1501L106.132 21.4334L105.792 21.6033L105.792 22.4531L105.055 22.7364L104.432 22.6231L104.036 22.0565L105.055 22.1132L105.395 21.7733L103.186 20.3003L103.016 19.6772L102.109 20.4703L101.203 20.3003L99.8434 22.1132L99.5601 22.793L98.6537 22.8497L97.3507 22.8497L96.5576 22.5098L96.331 20.9235L96.6142 20.187L97.9739 19.9038L99.4468 20.187L99.6168 19.3939L98.9936 19.2239L99.2202 17.9776L100.693 17.751L101.713 16.278L102.789 16.1081L103.752 16.2214L104.092 16.2214L103.922 14.8617L102.789 15.3149L102.393 14.2952L101.713 14.1819L101.43 13.5587L101.996 12.9356L103.299 12.4257L103.639 11.8025C98.6537 7.44031 92.1387 4.77767 85.0006 4.77767L84.9439 4.77767C78.7122 4.77767 72.9903 6.81714 68.3449 10.2163L69.7612 10.2163L70.3844 10.5562L71.574 10.8394L71.6307 10.7261L72.0273 10.3296L71.914 9.87635L70.3844 9.87635L72.0273 8.63001L73.6702 8.63001L74.4066 9.64974L75.653 9.70639L76.3895 8.96992L76.956 9.25318L75.9363 10.2729C75.9363 10.2729 74.52 10.2729 74.5766 10.2729C74.6333 10.2729 74.6899 11.236 74.6899 11.236L76.4461 11.1793L76.6161 10.7261L77.8058 10.6695L77.9757 9.98965L77.2392 9.87635L77.4659 9.25318L78.0324 9.08322L79.9019 9.19653L78.8822 10.1596L79.0521 10.8961L80.1285 11.066L80.0718 9.76305L81.0916 9.19653L82.9045 8.96992L85.0006 9.87635L85.5671 10.103L85.5671 11.1227L86.4169 11.3493L85.9637 12.1424L85.0006 12.1424L84.774 12.1424L84.4341 13.0489L81.7148 12.4257L83.8675 11.2927L83.0178 10.6128L81.1482 10.8394L81.0349 10.9527L81.0349 10.9527L80.9783 11.0094L80.4684 11.5759L79.562 11.6326L79.6186 12.0858L79.9019 12.1991L79.9019 12.369L79.1654 12.4823L79.1088 12.8789L78.4289 12.9356L78.3156 12.0858L77.0693 12.4823L74.5766 13.9553L74.8599 14.975L75.5397 15.4282L76.956 15.5982L76.956 17.2411L77.5792 17.1278L78.2023 15.8815L79.6753 15.4282L79.6753 13.5021L80.5251 12.8789L82.5645 13.3321L82.3946 14.5785L82.9611 14.5785L84.4341 13.842L84.4907 15.4849L85.0006 15.7682L85.5671 16.1081L85.5671 17.1845L85.0006 17.3544L85.0006 18.0342L85.7937 18.4308L85.7937 19.1106L85.4538 19.1673L85.4538 19.1673L85.0006 18.9973L83.8675 18.6574L83.8109 18.1475L83.8109 18.1475L84.2641 17.8076L84.2641 17.3544L83.8109 17.2411L83.6976 17.6377L82.7911 17.8076L82.7345 17.751L82.7345 17.8076L82.4512 17.8643L82.168 17.3544L81.8847 17.2411L81.2615 17.2411L80.9783 17.4677L80.9783 17.9776L81.4882 18.1475L81.998 18.2042L81.8847 18.2609L81.4315 18.7707L81.2049 18.4875L80.7517 18.3742L79.5053 19.5638L79.6753 19.6772L77.8058 20.6969L76.0496 22.5098L75.9363 23.3029L74.18 24.4359L73.3303 25.2857L73.4436 27.0419L72.2539 26.4754L72.2539 25.4557L68.9114 25.4557L67.2118 26.3054L66.4754 27.6651L66.1921 28.7415L66.702 29.8179L68.0616 29.9878L70.2144 28.5149L70.3844 29.2513L69.7045 30.6676L71.3474 30.9509L71.5174 33.5002L73.7835 33.8968L75.1998 32.2539L76.956 32.5938L77.5792 33.4436L79.2221 33.3303L79.2787 32.8204L80.1852 33.2736L81.2049 34.9165L83.0178 34.9165L83.6976 36.0496L83.8109 37.4659L85.0572 37.9758L85.7371 38.259L88.2297 38.259L88.9662 39.4487L90.0426 39.7886L89.816 40.7517L88.6263 42.2813L88.2864 45.6804L87.21 46.5302L85.5671 46.5869L85.0006 47.55L85.0006 47.55L85.3971 49.3062L85.0006 49.816L83.6409 51.5722L83.0744 52.592L81.3748 53.3851L80.2418 53.5551L80.1852 54.0083L80.9783 54.2349L80.865 54.7448L80.1852 55.4246L80.5817 55.9345L81.4315 55.9345L81.3748 56.5576L81.1482 57.1808L81.0916 57.6907L82.3379 58.7104L82.168 59.2769L80.4684 59.2203L78.7689 57.7473L77.4659 55.4246L77.6358 53.2152L76.6727 51.9122L77.0693 49.7027L76.5028 49.5328L76.5028 44.6607C76.5028 44.6607 74.8599 43.4144 74.7466 43.4144C74.6333 43.4144 73.8968 43.1877 73.8968 43.1877L73.7268 42.2813L71.574 39.6187L71.8007 38.6556L71.8573 37.0693L73.3303 36.0496L73.1037 34.2934L71.0642 34.2367L69.3646 32.3106L68.1749 31.9706L67.3818 31.8007L67.4951 31.1209L66.532 31.0076L66.532 31.4041L64.0393 30.7809L63.0196 29.2513L63.4162 28.5149L61.8299 26.2488L61.5466 24.6059L60.9235 24.6059L61.1501 26.2488L62.2265 27.8917L62.1132 28.5715L61.2067 28.4582L60.0737 26.532L60.0737 24.266L58.884 23.6994L58.884 22.1132C57.411 25.5123 56.6179 29.2513 56.6179 33.217C56.6179 48.8529 69.308 61.543 84.8873 61.543L84.9439 61.543C93.7816 61.543 101.656 57.4641 106.812 51.0624L105.962 51.0624L105.962 49.1929L104.885 47.7199L104.885 45.4538L104.036 44.604L103.979 43.641L104.999 41.6581L103.016 38.1457L103.243 35.7663L101.43 35.5964L100.863 34.8599L99.6735 34.8599L99.0503 35.4264L96.8975 35.4264L96.8409 35.5964L95.6512 35.5964L92.9885 32.5372L92.9885 30.1578L93.4417 29.9878L93.6117 29.0814L92.9885 29.0814L92.7053 28.1183L95.8211 25.8522L95.8211 24.266L97.3507 23.4162L97.9739 23.4728L99.2202 23.4728L100.183 22.963L103.356 22.7364L103.356 24.3793L105.849 25.0024L106.358 25.3424L106.812 25.3424L106.812 24.4359L108.285 24.3226L109.644 25.3424L111.91 25.3424L112.08 25.1724C111.854 24.3793 111.627 23.5861 111.344 22.8497ZM97.9739 14.8051L98.2572 14.4085L99.1636 14.2386L99.3902 15.3716L99.9001 16.1647L100.24 16.5613L100.863 16.7879L100.297 17.4677L99.1636 17.5244L98.3138 17.5244L98.4271 16.5613L99.1069 16.3913L99.0503 15.9381L98.4271 15.5416L97.9739 15.2583L97.9739 14.8051ZM96.4443 16.5613L97.0108 15.6549L97.7473 15.4849L98.3138 15.7115L98.2572 16.3347L97.0675 17.1845L96.3876 17.1845L96.3876 16.5613L96.4443 16.5613Z" fill="#98bed8" fill-rule="nonzero" opacity="1" stroke="none" vectornator:layerName="path"/>
<path d="M85.0572 63.0726C68.5715 63.0726 55.0883 49.6461 55.0883 33.1037C55.0883 16.5613 68.5715 3.13476 85.0572 3.13476C101.543 3.13476 115.026 16.5613 115.026 33.1037C115.026 49.6461 101.6 63.0726 85.0572 63.0726ZM85.0572 6.53388C70.441 6.53388 58.4874 18.4875 58.4874 33.1037C58.4874 47.7199 70.3844 59.6735 85.0572 59.6735C99.7301 59.6735 111.627 47.7766 111.627 33.1037C111.627 18.4308 99.7301 6.53388 85.0572 6.53388Z" fill="#454b54" fill-rule="nonzero" opacity="1" stroke="none" vectornator:layerName="path"/>
</g>
<path d="M105.752 62.4676C102.53 59.488 97.6179 59.5685 94.3967 62.7092C83.2029 73.903 73.8614 77.849 62.265 76.3994C58.319 75.9163 56.2252 74.9499 52.8429 73.3393C52.2792 73.0977 51.6349 72.7756 50.9907 72.4534C50.8296 72.3729 50.3464 72.1313 48.5748 71.165C47.4473 70.5207 47.3668 69.4738 47.3668 69.0712C47.3668 68.6685 47.4473 67.6216 48.5748 66.9774L60.7349 59.9712C64.842 57.5553 66.5331 52.4818 64.4393 48.2942C63.3119 46.0394 61.4597 44.4288 59.0437 43.704C56.7084 42.9792 54.1314 43.3013 52.0376 44.5093L24.174 60.6154C23.0465 61.2597 22.6439 62.7898 23.2881 63.9172C23.9324 65.0446 25.4625 65.4473 26.5899 64.803L54.4535 48.6969C55.4199 48.1332 56.5473 47.9721 57.6747 48.2942C58.7216 48.6164 59.6075 49.3411 60.0906 50.388C61.057 52.2403 60.2517 54.6562 58.319 55.7836L46.1588 62.7898C43.904 64.0783 42.535 66.4136 42.535 69.0712C42.535 71.7287 43.904 74.0641 46.1588 75.3525C48.011 76.3994 48.6553 76.7216 48.9774 76.8826C49.6217 77.2048 50.2659 77.4463 50.8296 77.7685C54.4535 79.4596 57.0305 80.6676 61.7013 81.2313C74.8278 82.8419 85.6189 78.4127 97.8595 66.1721C99.148 64.8836 101.242 64.803 102.45 66.011C103.658 67.219 103.658 69.3933 102.369 70.7623C97.5374 75.8357 79.7401 92.5056 53.0039 92.5056C39.7969 92.5056 24.4156 87.0295 19.6643 85.2578L19.6643 60.2933C19.6643 58.9243 18.6174 57.8774 17.2483 57.8774L9.19527 57.8774C7.82625 57.8774 6.77935 58.9243 6.77935 60.2933C6.77935 61.6623 7.82625 62.7092 9.19527 62.7092L14.8324 62.7092L14.8324 90.0897L9.19527 90.0897C7.82625 90.0897 6.77935 91.1366 6.77935 92.5056C6.77935 93.8746 7.82625 94.9215 9.19527 94.9215L17.2483 94.9215C18.6174 94.9215 19.6643 93.8746 19.6643 92.5056L19.6643 90.4118C26.0262 92.7472 40.1996 97.3374 53.0039 97.3374C72.3313 97.3374 92.0613 88.6401 105.832 74.0641C108.973 70.8428 108.892 65.5278 105.752 62.4676Z" fill="#444b54" fill-rule="nonzero" opacity="1" stroke="none" vectornator:layerName="path"/>
</g>
<g fill="#444b54" opacity="1" stroke="none" vectornator:layerName="Text 3">
<path d="M12.0167 23.9078C12.0167 24.1951 11.9893 24.4654 11.9345 24.7187C11.8796 24.9721 11.7908 25.1928 11.6681 25.3808C11.5453 25.5688 11.3821 25.7164 11.1784 25.8235C10.9747 25.9306 10.7239 25.9841 10.4262 25.9841C10.1285 25.9841 9.87904 25.9306 9.67794 25.8235C9.47683 25.7164 9.31491 25.5688 9.19215 25.3808C9.0694 25.1928 8.98191 24.9721 8.92967 24.7187C8.87744 24.4654 8.85132 24.1951 8.85132 23.9078L8.85132 20.3036L9.39979 20.3036L9.39979 23.8373C9.39979 24.041 9.41415 24.2421 9.44288 24.4406C9.47161 24.6391 9.52384 24.8154 9.59958 24.9695C9.67532 25.1235 9.77979 25.2476 9.91299 25.3416C10.0462 25.4356 10.2199 25.4827 10.434 25.4827C10.643 25.4827 10.8153 25.4356 10.9512 25.3416C11.087 25.2476 11.1927 25.1235 11.2685 24.9695C11.3442 24.8154 11.3965 24.6404 11.4252 24.4445C11.4539 24.2486 11.4683 24.0462 11.4683 23.8373L11.4683 20.3036L12.0167 20.3036L12.0167 23.9078Z"/>
<path d="M15.6288 24.4327C15.6288 24.6782 15.5922 24.8963 15.5191 25.087C15.4459 25.2776 15.3454 25.4396 15.2174 25.5728C15.0894 25.706 14.9393 25.8078 14.7669 25.8783C14.5945 25.9489 14.4117 25.9841 14.2184 25.9841C13.9364 25.9841 13.6765 25.924 13.4388 25.8039C13.2012 25.6838 13.0092 25.5244 12.8629 25.326L13.1999 24.942C13.32 25.1144 13.4715 25.2476 13.6543 25.3416C13.8371 25.4356 14.0226 25.4827 14.2106 25.4827C14.4613 25.4827 14.6716 25.3939 14.8413 25.2163C15.0111 25.0387 15.096 24.7853 15.096 24.4562C15.096 24.2995 15.0699 24.1611 15.0176 24.041C14.9654 23.9208 14.8949 23.8138 14.8061 23.7197C14.7173 23.6257 14.6167 23.5421 14.5044 23.469C14.3921 23.3959 14.2733 23.328 14.1479 23.2653C13.9964 23.1922 13.8528 23.1099 13.717 23.0185C13.5812 22.9271 13.4623 22.8213 13.3605 22.7012C13.2586 22.581 13.1764 22.4387 13.1137 22.2741C13.051 22.1096 13.0196 21.9176 13.0196 21.6983C13.0196 21.4423 13.0588 21.219 13.1372 21.0283C13.2155 20.8377 13.3213 20.6784 13.4545 20.5504C13.5877 20.4224 13.7379 20.3271 13.905 20.2644C14.0722 20.2017 14.2472 20.1704 14.43 20.1704C14.6807 20.1704 14.9066 20.2135 15.1077 20.2997C15.3088 20.3859 15.4773 20.5204 15.6131 20.7032L15.2762 21.0871C15.1717 20.9356 15.049 20.8272 14.9079 20.7619C14.7669 20.6967 14.6128 20.664 14.4457 20.664C14.336 20.664 14.2276 20.6836 14.1205 20.7228C14.0134 20.7619 13.9181 20.8233 13.8345 20.9069C13.7509 20.9905 13.683 21.0976 13.6308 21.2281C13.5786 21.3587 13.5524 21.5128 13.5524 21.6904C13.5524 21.8471 13.5759 21.9829 13.623 22.0979C13.67 22.2128 13.734 22.3146 13.8149 22.4034C13.8959 22.4922 13.9899 22.5706 14.097 22.6385C14.2041 22.7064 14.3151 22.7691 14.43 22.8265C14.5762 22.8997 14.7212 22.9832 14.8648 23.0773C15.0085 23.1713 15.1378 23.281 15.2527 23.4063C15.3676 23.5317 15.459 23.6779 15.5269 23.8451C15.5948 24.0123 15.6288 24.2081 15.6288 24.4327Z"/>
<path d="M8.914 36.8509L8.914 31.3036L11.147 31.3036L11.147 31.7894L9.4468 31.7894L9.4468 33.7403L11.0373 33.7403L11.0373 34.2026L9.4468 34.2026L9.4468 36.3573L11.2254 36.3573L11.2254 36.8509L8.914 36.8509Z"/>
<path d="M15.2919 34.9078C15.2919 35.1951 15.2644 35.4654 15.2096 35.7187C15.1547 35.9721 15.0659 36.1928 14.9432 36.3808C14.8204 36.5688 14.6572 36.7164 14.4535 36.8235C14.2498 36.9306 13.999 36.9841 13.7013 36.9841C13.4036 36.9841 13.1542 36.9306 12.953 36.8235C12.7519 36.7164 12.59 36.5688 12.4673 36.3808C12.3445 36.1928 12.257 35.9721 12.2048 35.7187C12.1526 35.4654 12.1264 35.1951 12.1264 34.9078L12.1264 31.3036L12.6749 31.3036L12.6749 34.8373C12.6749 35.041 12.6893 35.2421 12.718 35.4406C12.7467 35.6391 12.799 35.8154 12.8747 35.9695C12.9504 36.1235 13.0549 36.2476 13.1881 36.3416C13.3213 36.4356 13.495 36.4827 13.7091 36.4827C13.9181 36.4827 14.0905 36.4356 14.2263 36.3416C14.3621 36.2476 14.4679 36.1235 14.5436 35.9695C14.6193 35.8154 14.6716 35.6404 14.7003 35.4445C14.729 35.2486 14.7434 35.0462 14.7434 34.8373L14.7434 31.3036L15.2919 31.3036L15.2919 34.9078Z"/>
<path d="M12.6984 47.8509L12.6984 43.0323L12.6749 43.0323L11.3116 47.8509L10.8023 47.8509L9.4468 43.0323L9.42329 43.0323L9.42329 47.8509L8.914 47.8509L8.914 42.3036L9.72887 42.3036L11.053 46.989L11.0844 46.989L12.3928 42.3036L13.239 42.3036L13.239 47.8509L12.6984 47.8509Z"/>
<path d="M14.5083 47.8509L14.5083 42.3036L16.7414 42.3036L16.7414 42.7894L15.0411 42.7894L15.0411 44.7403L16.6317 44.7403L16.6317 45.2026L15.0411 45.2026L15.0411 47.3573L16.8197 47.3573L16.8197 47.8509L14.5083 47.8509Z"/>
</g>
</g>
</svg>
