<?xml version="1.0" encoding="UTF-8" standalone="no"?>
<!DOCTYPE svg PUBLIC "-//W3C//DTD SVG 1.1//EN" "http://www.w3.org/Graphics/SVG/1.1/DTD/svg11.dtd">
<!-- Created with Vectornator (http://vectornator.io/) -->
<svg height="100%" stroke-miterlimit="10" style="fill-rule:nonzero;clip-rule:evenodd;stroke-linecap:round;stroke-linejoin:round;" version="1.1" viewBox="0 0 230 250" width="100%" xml:space="preserve" xmlns="http://www.w3.org/2000/svg" xmlns:vectornator="http://vectornator.io" xmlns:xlink="http://www.w3.org/1999/xlink">
<defs/>
<g id="Layer-1" vectornator:layerName="Layer 1">
<g fill="#000000" opacity="1" stroke="none" vectornator:layerName="Text 1">
<path d="M59.749 46.1699C60.5576 46.1699 61.2568 46.3262 61.8467 46.6387C62.7021 47.0879 63.2256 47.875 63.417 49L62.2627 49C62.1221 48.3711 61.8311 47.9131 61.3896 47.626C60.9482 47.3389 60.3916 47.1953 59.7197 47.1953C58.9229 47.1953 58.252 47.4941 57.707 48.0918C57.1621 48.6895 56.8896 49.5801 56.8896 50.7637C56.8896 51.7871 57.1143 52.6201 57.5635 53.2627C58.0127 53.9053 58.7451 54.2266 59.7607 54.2266C60.5381 54.2266 61.1816 54.001 61.6914 53.5498C62.2012 53.0986 62.4619 52.3691 62.4736 51.3613L59.7783 51.3613L59.7783 50.3945L63.5576 50.3945L63.5576 55L62.8076 55L62.5264 53.8926C62.1318 54.3262 61.7822 54.627 61.4775 54.7949C60.9658 55.084 60.3154 55.2285 59.5264 55.2285C58.5068 55.2285 57.6299 54.8984 56.8955 54.2383C56.0947 53.4102 55.6943 52.2734 55.6943 50.8281C55.6943 49.3867 56.085 48.2402 56.8662 47.3887C57.6084 46.5762 58.5693 46.1699 59.749 46.1699Z"/>
<path d="M65.251 48.7246L66.2529 48.7246L66.2529 49.8086C66.335 49.5977 66.5361 49.3408 66.8564 49.0381C67.1768 48.7354 67.5459 48.584 67.9639 48.584C67.9834 48.584 68.0166 48.5859 68.0635 48.5898C68.1104 48.5938 68.1904 48.6016 68.3037 48.6133L68.3037 49.7266C68.2412 49.7148 68.1836 49.707 68.1309 49.7031C68.0781 49.6992 68.0205 49.6973 67.958 49.6973C67.4268 49.6973 67.0186 49.8682 66.7334 50.21C66.4482 50.5518 66.3057 50.9453 66.3057 51.3906L66.3057 55L65.251 55L65.251 48.7246Z"/>
<path d="M70.2725 48.7246L70.2725 52.8906C70.2725 53.2109 70.3232 53.4727 70.4248 53.6758C70.6123 54.0508 70.9619 54.2383 71.4736 54.2383C72.208 54.2383 72.708 53.9102 72.9736 53.2539C73.1182 52.9023 73.1904 52.4199 73.1904 51.8066L73.1904 48.7246L74.2451 48.7246L74.2451 55L73.249 55L73.2607 54.0742C73.124 54.3125 72.9541 54.5137 72.751 54.6777C72.3486 55.0059 71.8604 55.1699 71.2861 55.1699C70.3916 55.1699 69.7822 54.8711 69.458 54.2734C69.2822 53.9531 69.1943 53.5254 69.1943 52.9902L69.1943 48.7246L70.2725 48.7246ZM72.2119 46.5332L73.3076 46.5332L73.3076 47.752L72.2119 47.752L72.2119 46.5332ZM70.2783 46.5332L71.374 46.5332L71.374 47.752L70.2783 47.752L70.2783 46.5332Z"/>
<path d="M75.8916 48.7246L76.8936 48.7246L76.8936 49.6152C77.1904 49.248 77.5049 48.9844 77.8369 48.8242C78.1689 48.6641 78.5381 48.584 78.9443 48.584C79.835 48.584 80.4365 48.8945 80.749 49.5156C80.9209 49.8555 81.0068 50.3418 81.0068 50.9746L81.0068 55L79.9346 55L79.9346 51.0449C79.9346 50.6621 79.8779 50.3535 79.7646 50.1191C79.5771 49.7285 79.2373 49.5332 78.7451 49.5332C78.4951 49.5332 78.29 49.5586 78.1299 49.6094C77.8408 49.6953 77.5869 49.8672 77.3682 50.125C77.1924 50.332 77.0781 50.5459 77.0254 50.7666C76.9727 50.9873 76.9463 51.3027 76.9463 51.7129L76.9463 55L75.8916 55L75.8916 48.7246Z"/>
<path d="M83.2334 51.9355C83.2334 52.6074 83.376 53.1699 83.6611 53.623C83.9463 54.0762 84.4033 54.3027 85.0322 54.3027C85.5205 54.3027 85.9219 54.0928 86.2363 53.6729C86.5508 53.2529 86.708 52.6504 86.708 51.8652C86.708 51.0723 86.5459 50.4854 86.2217 50.1045C85.8975 49.7236 85.4971 49.5332 85.0205 49.5332C84.4893 49.5332 84.0586 49.7363 83.7285 50.1426C83.3984 50.5488 83.2334 51.1465 83.2334 51.9355ZM84.8213 48.6133C85.3018 48.6133 85.7041 48.7148 86.0283 48.918C86.2158 49.0352 86.4287 49.2402 86.667 49.5332L86.667 46.3633L87.6807 46.3633L87.6807 55L86.7314 55L86.7314 54.127C86.4854 54.5137 86.1943 54.793 85.8584 54.9648C85.5225 55.1367 85.1377 55.2227 84.7041 55.2227C84.0049 55.2227 83.3994 54.9287 82.8877 54.3408C82.376 53.7529 82.1201 52.9707 82.1201 51.9941C82.1201 51.0801 82.3535 50.2881 82.8203 49.6182C83.2871 48.9482 83.9541 48.6133 84.8213 48.6133Z"/>
<path d="M90.2939 48.7246L90.2939 52.8906C90.2939 53.2109 90.3447 53.4727 90.4463 53.6758C90.6338 54.0508 90.9834 54.2383 91.4951 54.2383C92.2295 54.2383 92.7295 53.9102 92.9951 53.2539C93.1396 52.9023 93.2119 52.4199 93.2119 51.8066L93.2119 48.7246L94.2666 48.7246L94.2666 55L93.2705 55L93.2822 54.0742C93.1455 54.3125 92.9756 54.5137 92.7725 54.6777C92.3701 55.0059 91.8818 55.1699 91.3076 55.1699C90.4131 55.1699 89.8037 54.8711 89.4795 54.2734C89.3037 53.9531 89.2158 53.5254 89.2158 52.9902L89.2158 48.7246L90.2939 48.7246Z"/>
<path d="M95.9131 48.7246L96.915 48.7246L96.915 49.6152C97.2119 49.248 97.5264 48.9844 97.8584 48.8242C98.1904 48.6641 98.5596 48.584 98.9658 48.584C99.8564 48.584 100.458 48.8945 100.771 49.5156C100.942 49.8555 101.028 50.3418 101.028 50.9746L101.028 55L99.9561 55L99.9561 51.0449C99.9561 50.6621 99.8994 50.3535 99.7861 50.1191C99.5986 49.7285 99.2588 49.5332 98.7666 49.5332C98.5166 49.5332 98.3115 49.5586 98.1514 49.6094C97.8623 49.6953 97.6084 49.8672 97.3896 50.125C97.2139 50.332 97.0996 50.5459 97.0469 50.7666C96.9941 50.9873 96.9678 51.3027 96.9678 51.7129L96.9678 55L95.9131 55L95.9131 48.7246Z"/>
<path d="M104.802 48.6133C105.294 48.6133 105.724 48.7344 106.091 48.9766C106.29 49.1133 106.493 49.3125 106.7 49.5742L106.7 48.7832L107.673 48.7832L107.673 54.4902C107.673 55.2871 107.556 55.916 107.321 56.377C106.884 57.2285 106.058 57.6543 104.843 57.6543C104.167 57.6543 103.599 57.5029 103.138 57.2002C102.677 56.8975 102.419 56.4238 102.364 55.7793L103.437 55.7793C103.487 56.0605 103.589 56.2773 103.741 56.4297C103.979 56.6641 104.354 56.7812 104.866 56.7812C105.675 56.7812 106.204 56.4961 106.454 55.9258C106.603 55.5898 106.671 54.9902 106.659 54.127C106.448 54.4473 106.194 54.6855 105.897 54.8418C105.601 54.998 105.208 55.0762 104.72 55.0762C104.04 55.0762 103.445 54.835 102.936 54.3525C102.426 53.8701 102.171 53.0723 102.171 51.959C102.171 50.9082 102.428 50.0879 102.941 49.498C103.455 48.9082 104.075 48.6133 104.802 48.6133ZM106.7 51.8359C106.7 51.0586 106.54 50.4824 106.22 50.1074C105.899 49.7324 105.491 49.5449 104.995 49.5449C104.253 49.5449 103.745 49.8926 103.472 50.5879C103.327 50.959 103.255 51.4453 103.255 52.0469C103.255 52.7539 103.398 53.292 103.686 53.6611C103.973 54.0303 104.358 54.2148 104.843 54.2148C105.601 54.2148 106.134 53.873 106.442 53.1895C106.614 52.8027 106.7 52.3516 106.7 51.8359Z"/>
<path d="M112.196 55C112.235 54.2773 112.385 53.6484 112.645 53.1133C112.904 52.5781 113.411 52.0918 114.165 51.6543L115.29 51.0039C115.794 50.7109 116.147 50.4609 116.351 50.2539C116.671 49.9297 116.831 49.5586 116.831 49.1406C116.831 48.6523 116.685 48.2646 116.392 47.9775C116.099 47.6904 115.708 47.5469 115.22 47.5469C114.497 47.5469 113.997 47.8203 113.72 48.3672C113.571 48.6602 113.489 49.0664 113.474 49.5859L112.401 49.5859C112.413 48.8555 112.548 48.2598 112.806 47.7988C113.263 46.9863 114.069 46.5801 115.226 46.5801C116.187 46.5801 116.889 46.8398 117.332 47.3594C117.775 47.8789 117.997 48.457 117.997 49.0938C117.997 49.7656 117.761 50.3398 117.288 50.8164C117.015 51.0938 116.524 51.4297 115.817 51.8242L115.015 52.2695C114.632 52.4805 114.331 52.6816 114.112 52.873C113.722 53.2129 113.476 53.5898 113.374 54.0039L117.956 54.0039L117.956 55L112.196 55Z"/>
<path d="M121.741 46.6094C122.827 46.6094 123.612 47.0566 124.097 47.9512C124.472 48.6426 124.659 49.5898 124.659 50.793C124.659 51.9336 124.489 52.877 124.149 53.623C123.657 54.6934 122.853 55.2285 121.735 55.2285C120.728 55.2285 119.978 54.791 119.485 53.916C119.075 53.1855 118.87 52.2051 118.87 50.9746C118.87 50.0215 118.993 49.2031 119.239 48.5195C119.7 47.2461 120.534 46.6094 121.741 46.6094ZM121.729 54.2676C122.276 54.2676 122.712 54.0254 123.036 53.541C123.36 53.0566 123.522 52.1543 123.522 50.834C123.522 49.8809 123.405 49.0967 123.171 48.4814C122.937 47.8662 122.481 47.5586 121.806 47.5586C121.185 47.5586 120.73 47.8506 120.443 48.4346C120.156 49.0186 120.013 49.8789 120.013 51.0156C120.013 51.8711 120.104 52.5586 120.288 53.0781C120.569 53.8711 121.05 54.2676 121.729 54.2676Z"/>
<path d="M126.317 49.0586L126.317 48.25C127.079 48.1758 127.61 48.0518 127.911 47.8779C128.212 47.7041 128.437 47.293 128.585 46.6445L129.417 46.6445L129.417 55L128.292 55L128.292 49.0586L126.317 49.0586Z"/>
<path d="M135.089 46.6094C136.175 46.6094 136.96 47.0566 137.444 47.9512C137.819 48.6426 138.007 49.5898 138.007 50.793C138.007 51.9336 137.837 52.877 137.497 53.623C137.005 54.6934 136.2 55.2285 135.083 55.2285C134.075 55.2285 133.325 54.791 132.833 53.916C132.423 53.1855 132.218 52.2051 132.218 50.9746C132.218 50.0215 132.341 49.2031 132.587 48.5195C133.048 47.2461 133.882 46.6094 135.089 46.6094ZM135.077 54.2676C135.624 54.2676 136.06 54.0254 136.384 53.541C136.708 53.0566 136.87 52.1543 136.87 50.834C136.87 49.8809 136.753 49.0967 136.519 48.4814C136.284 47.8662 135.829 47.5586 135.153 47.5586C134.532 47.5586 134.078 47.8506 133.791 48.4346C133.504 49.0186 133.36 49.8789 133.36 51.0156C133.36 51.8711 133.452 52.5586 133.636 53.0781C133.917 53.8711 134.397 54.2676 135.077 54.2676Z"/>
<path d="M56.292 74.3926L57.4697 74.3926L57.4697 83L56.292 83L56.292 74.3926Z"/>
<path d="M59.2217 76.7246L60.2236 76.7246L60.2236 77.6152C60.5205 77.248 60.835 76.9844 61.167 76.8242C61.499 76.6641 61.8682 76.584 62.2744 76.584C63.165 76.584 63.7666 76.8945 64.0791 77.5156C64.251 77.8555 64.3369 78.3418 64.3369 78.9746L64.3369 83L63.2646 83L63.2646 79.0449C63.2646 78.6621 63.208 78.3535 63.0947 78.1191C62.9072 77.7285 62.5674 77.5332 62.0752 77.5332C61.8252 77.5332 61.6201 77.5586 61.46 77.6094C61.1709 77.6953 60.917 77.8672 60.6982 78.125C60.5225 78.332 60.4082 78.5459 60.3555 78.7666C60.3027 78.9873 60.2764 79.3027 60.2764 79.7129L60.2764 83L59.2217 83L59.2217 76.7246Z"/>
<path d="M68.1104 76.6133C68.6025 76.6133 69.0322 76.7344 69.3994 76.9766C69.5986 77.1133 69.8018 77.3125 70.0088 77.5742L70.0088 76.7832L70.9814 76.7832L70.9814 82.4902C70.9814 83.2871 70.8643 83.916 70.6299 84.377C70.1924 85.2285 69.3662 85.6543 68.1514 85.6543C67.4756 85.6543 66.9072 85.5029 66.4463 85.2002C65.9854 84.8975 65.7275 84.4238 65.6729 83.7793L66.7451 83.7793C66.7959 84.0605 66.8975 84.2773 67.0498 84.4297C67.2881 84.6641 67.6631 84.7812 68.1748 84.7812C68.9834 84.7812 69.5127 84.4961 69.7627 83.9258C69.9111 83.5898 69.9795 82.9902 69.9678 82.127C69.7568 82.4473 69.5029 82.6855 69.2061 82.8418C68.9092 82.998 68.5166 83.0762 68.0283 83.0762C67.3486 83.0762 66.7539 82.835 66.2441 82.3525C65.7344 81.8701 65.4795 81.0723 65.4795 79.959C65.4795 78.9082 65.7363 78.0879 66.25 77.498C66.7637 76.9082 67.3838 76.6133 68.1104 76.6133ZM70.0088 79.8359C70.0088 79.0586 69.8486 78.4824 69.5283 78.1074C69.208 77.7324 68.7998 77.5449 68.3037 77.5449C67.5615 77.5449 67.0537 77.8926 66.7803 78.5879C66.6357 78.959 66.5635 79.4453 66.5635 80.0469C66.5635 80.7539 66.707 81.292 66.9941 81.6611C67.2813 82.0303 67.667 82.2148 68.1514 82.2148C68.9092 82.2148 69.4424 81.873 69.751 81.1895C69.9229 80.8027 70.0088 80.3516 70.0088 79.8359Z"/>
<path d="M75.1826 76.584C75.6279 76.584 76.0596 76.6885 76.4775 76.8975C76.8955 77.1064 77.2139 77.377 77.4326 77.709C77.6436 78.0254 77.7842 78.3945 77.8545 78.8164C77.917 79.1055 77.9482 79.5664 77.9482 80.1992L73.3486 80.1992C73.3682 80.8359 73.5186 81.3467 73.7998 81.7314C74.0811 82.1162 74.5166 82.3086 75.1064 82.3086C75.6572 82.3086 76.0967 82.127 76.4248 81.7637C76.6123 81.5527 76.7451 81.3086 76.8232 81.0312L77.8604 81.0312C77.833 81.2617 77.7422 81.5186 77.5879 81.8018C77.4336 82.085 77.2607 82.3164 77.0693 82.4961C76.749 82.8086 76.3525 83.0195 75.8799 83.1289C75.626 83.1914 75.3389 83.2227 75.0186 83.2227C74.2373 83.2227 73.5752 82.9385 73.0322 82.3701C72.4893 81.8018 72.2178 81.0059 72.2178 79.9824C72.2178 78.9746 72.4912 78.1563 73.0381 77.5273C73.585 76.8984 74.2998 76.584 75.1826 76.584ZM76.8643 79.3613C76.8213 78.9043 76.7217 78.5391 76.5654 78.2656C76.2764 77.7578 75.7939 77.5039 75.1182 77.5039C74.6338 77.5039 74.2275 77.6787 73.8994 78.0283C73.5713 78.3779 73.3975 78.8223 73.3779 79.3613L76.8643 79.3613Z"/>
<path d="M79.2432 76.7246L80.2451 76.7246L80.2451 77.6152C80.542 77.248 80.8564 76.9844 81.1885 76.8242C81.5205 76.6641 81.8896 76.584 82.2959 76.584C83.1865 76.584 83.7881 76.8945 84.1006 77.5156C84.2725 77.8555 84.3584 78.3418 84.3584 78.9746L84.3584 83L83.2861 83L83.2861 79.0449C83.2861 78.6621 83.2295 78.3535 83.1162 78.1191C82.9287 77.7285 82.5889 77.5332 82.0967 77.5332C81.8467 77.5332 81.6416 77.5586 81.4814 77.6094C81.1924 77.6953 80.9385 77.8672 80.7197 78.125C80.5439 78.332 80.4297 78.5459 80.377 78.7666C80.3242 78.9873 80.2979 79.3027 80.2979 79.7129L80.2979 83L79.2432 83L79.2432 76.7246Z"/>
<path d="M85.917 76.7539L86.9893 76.7539L86.9893 83L85.917 83L85.917 76.7539ZM85.917 74.3926L86.9893 74.3926L86.9893 75.5879L85.917 75.5879L85.917 74.3926Z"/>
<path d="M91.1963 76.584C91.6416 76.584 92.0732 76.6885 92.4912 76.8975C92.9092 77.1064 93.2275 77.377 93.4463 77.709C93.6572 78.0254 93.7979 78.3945 93.8682 78.8164C93.9307 79.1055 93.9619 79.5664 93.9619 80.1992L89.3623 80.1992C89.3818 80.8359 89.5322 81.3467 89.8135 81.7314C90.0947 82.1162 90.5303 82.3086 91.1201 82.3086C91.6709 82.3086 92.1104 82.127 92.4385 81.7637C92.626 81.5527 92.7588 81.3086 92.8369 81.0312L93.874 81.0312C93.8467 81.2617 93.7559 81.5186 93.6016 81.8018C93.4473 82.085 93.2744 82.3164 93.083 82.4961C92.7627 82.8086 92.3662 83.0195 91.8936 83.1289C91.6396 83.1914 91.3525 83.2227 91.0322 83.2227C90.251 83.2227 89.5889 82.9385 89.0459 82.3701C88.5029 81.8018 88.2314 81.0059 88.2314 79.9824C88.2314 78.9746 88.5049 78.1563 89.0518 77.5273C89.5986 76.8984 90.3135 76.584 91.1963 76.584ZM92.8779 79.3613C92.835 78.9043 92.7354 78.5391 92.5791 78.2656C92.29 77.7578 91.8076 77.5039 91.1318 77.5039C90.6475 77.5039 90.2412 77.6787 89.9131 78.0283C89.585 78.3779 89.4111 78.8223 89.3916 79.3613L92.8779 79.3613Z"/>
<path d="M96.3115 76.7246L96.3115 80.8906C96.3115 81.2109 96.3623 81.4727 96.4639 81.6758C96.6514 82.0508 97.001 82.2383 97.5127 82.2383C98.2471 82.2383 98.7471 81.9102 99.0127 81.2539C99.1572 80.9023 99.2295 80.4199 99.2295 79.8066L99.2295 76.7246L100.284 76.7246L100.284 83L99.2881 83L99.2998 82.0742C99.1631 82.3125 98.9932 82.5137 98.79 82.6777C98.3877 83.0059 97.8994 83.1699 97.3252 83.1699C96.4307 83.1699 95.8213 82.8711 95.4971 82.2734C95.3213 81.9531 95.2334 81.5254 95.2334 80.9902L95.2334 76.7246L96.3115 76.7246Z"/>
<path d="M101.96 76.7246L102.962 76.7246L102.962 77.8086C103.044 77.5977 103.245 77.3408 103.565 77.0381C103.886 76.7354 104.255 76.584 104.673 76.584C104.692 76.584 104.726 76.5859 104.772 76.5898C104.819 76.5938 104.899 76.6016 105.013 76.6133L105.013 77.7266C104.95 77.7148 104.893 77.707 104.84 77.7031C104.787 77.6992 104.729 77.6973 104.667 77.6973C104.136 77.6973 103.728 77.8682 103.442 78.21C103.157 78.5518 103.015 78.9453 103.015 79.3906L103.015 83L101.96 83L101.96 76.7246Z"/>
<path d="M111.604 83.2285C110.612 83.2285 109.893 82.9561 109.445 82.4111C108.998 81.8662 108.774 81.2031 108.774 80.4219L109.876 80.4219C109.923 80.9648 110.024 81.3594 110.181 81.6055C110.454 82.0469 110.948 82.2676 111.663 82.2676C112.218 82.2676 112.663 82.1191 112.999 81.8223C113.335 81.5254 113.503 81.1426 113.503 80.6738C113.503 80.0957 113.326 79.6914 112.973 79.4609C112.619 79.2305 112.128 79.1152 111.499 79.1152C111.429 79.1152 111.357 79.1162 111.285 79.1182C111.213 79.1201 111.14 79.123 111.065 79.127L111.065 78.1953C111.175 78.207 111.267 78.2148 111.341 78.2188C111.415 78.2227 111.495 78.2246 111.581 78.2246C111.976 78.2246 112.3 78.1621 112.554 78.0371C112.999 77.8184 113.222 77.4277 113.222 76.8652C113.222 76.4473 113.073 76.125 112.776 75.8984C112.479 75.6719 112.134 75.5586 111.739 75.5586C111.036 75.5586 110.55 75.793 110.28 76.2617C110.132 76.5195 110.048 76.8867 110.028 77.3633L108.985 77.3633C108.985 76.7383 109.11 76.207 109.36 75.7695C109.79 74.9883 110.546 74.5977 111.628 74.5977C112.483 74.5977 113.146 74.7881 113.614 75.1689C114.083 75.5498 114.317 76.1016 114.317 76.8242C114.317 77.3398 114.179 77.7578 113.901 78.0781C113.729 78.2773 113.507 78.4336 113.233 78.5469C113.675 78.668 114.02 78.9014 114.268 79.2471C114.516 79.5928 114.64 80.0156 114.64 80.5156C114.64 81.3164 114.376 81.9687 113.849 82.4727C113.321 82.9766 112.573 83.2285 111.604 83.2285Z"/>
<path d="M119.38 82.0039C119.774 82.0039 120.099 81.9629 120.353 81.8809C120.806 81.7285 121.177 81.4355 121.466 81.002C121.696 80.6543 121.862 80.209 121.964 79.666C122.022 79.3418 122.052 79.041 122.052 78.7637C122.052 77.6973 121.84 76.8691 121.416 76.2793C120.992 75.6895 120.31 75.3945 119.368 75.3945L117.3 75.3945L117.3 82.0039L119.38 82.0039ZM116.128 74.3926L119.614 74.3926C120.798 74.3926 121.716 74.8125 122.368 75.6523C122.95 76.4102 123.241 77.3809 123.241 78.5645C123.241 79.4785 123.069 80.3047 122.726 81.043C122.12 82.3477 121.079 83 119.603 83L116.128 83L116.128 74.3926Z"/>
<path d="M130.548 76.584C130.993 76.584 131.425 76.6885 131.843 76.8975C132.261 77.1064 132.579 77.377 132.798 77.709C133.009 78.0254 133.149 78.3945 133.22 78.8164C133.282 79.1055 133.313 79.5664 133.313 80.1992L128.714 80.1992C128.733 80.8359 128.884 81.3467 129.165 81.7314C129.446 82.1162 129.882 82.3086 130.472 82.3086C131.022 82.3086 131.462 82.127 131.79 81.7637C131.978 81.5527 132.11 81.3086 132.188 81.0312L133.226 81.0312C133.198 81.2617 133.107 81.5186 132.953 81.8018C132.799 82.085 132.626 82.3164 132.435 82.4961C132.114 82.8086 131.718 83.0195 131.245 83.1289C130.991 83.1914 130.704 83.2227 130.384 83.2227C129.603 83.2227 128.94 82.9385 128.397 82.3701C127.854 81.8018 127.583 81.0059 127.583 79.9824C127.583 78.9746 127.856 78.1563 128.403 77.5273C128.95 76.8984 129.665 76.584 130.548 76.584ZM132.229 79.3613C132.187 78.9043 132.087 78.5391 131.931 78.2656C131.642 77.7578 131.159 77.5039 130.483 77.5039C129.999 77.5039 129.593 77.6787 129.265 78.0283C128.937 78.3779 128.763 78.8223 128.743 79.3613L132.229 79.3613Z"/>
<path d="M134.749 74.3926L135.886 74.3926L135.886 78.5879L140.081 74.3926L141.692 74.3926L138.112 77.8613L141.792 83L140.274 83L137.263 78.6816L135.886 80L135.886 83L134.749 83L134.749 74.3926Z"/>
<path d="M56.79 94.2227C56.8174 94.7109 56.9326 95.1074 57.1357 95.4121C57.5225 95.9824 58.2041 96.2676 59.1807 96.2676C59.6182 96.2676 60.0166 96.2051 60.376 96.0801C61.0713 95.8379 61.4189 95.4043 61.4189 94.7793C61.4189 94.3105 61.2725 93.9766 60.9795 93.7773C60.6826 93.582 60.2178 93.4121 59.585 93.2676L58.4189 93.0039C57.6572 92.832 57.1182 92.6426 56.8018 92.4355C56.2549 92.0762 55.9814 91.5391 55.9814 90.8242C55.9814 90.0508 56.249 89.416 56.7842 88.9199C57.3193 88.4238 58.0771 88.1758 59.0576 88.1758C59.96 88.1758 60.7266 88.3936 61.3574 88.8291C61.9883 89.2646 62.3037 89.9609 62.3037 90.918L61.208 90.918C61.1494 90.457 61.0244 90.1035 60.833 89.8574C60.4775 89.4082 59.874 89.1836 59.0225 89.1836C58.335 89.1836 57.8408 89.3281 57.54 89.6172C57.2393 89.9063 57.0889 90.2422 57.0889 90.625C57.0889 91.0469 57.2646 91.3555 57.6162 91.5508C57.8467 91.6758 58.3682 91.832 59.1807 92.0195L60.3877 92.2949C60.9697 92.4277 61.4189 92.6094 61.7354 92.8398C62.2822 93.2422 62.5557 93.8262 62.5557 94.5918C62.5557 95.5449 62.209 96.2266 61.5156 96.6367C60.8223 97.0469 60.0166 97.252 59.0986 97.252C58.0283 97.252 57.1904 96.9785 56.585 96.4316C55.9795 95.8887 55.6826 95.1523 55.6943 94.2227L56.79 94.2227Z"/>
<path d="M66.3115 90.543C67.0186 90.543 67.5937 90.7148 68.0371 91.0586C68.4805 91.4023 68.7471 91.9941 68.8369 92.834L67.8115 92.834C67.749 92.4473 67.6064 92.126 67.3838 91.8701C67.1611 91.6143 66.8037 91.4863 66.3115 91.4863C65.6396 91.4863 65.1592 91.8145 64.8701 92.4707C64.6826 92.8965 64.5889 93.4219 64.5889 94.0469C64.5889 94.6758 64.7217 95.2051 64.9873 95.6348C65.2529 96.0645 65.6709 96.2793 66.2412 96.2793C66.6787 96.2793 67.0254 96.1455 67.2812 95.8779C67.5371 95.6104 67.7139 95.2441 67.8115 94.7793L68.8369 94.7793C68.7197 95.6113 68.4268 96.2197 67.958 96.6045C67.4893 96.9893 66.8896 97.1816 66.1592 97.1816C65.3389 97.1816 64.6846 96.8818 64.1963 96.2822C63.708 95.6826 63.4639 94.9336 63.4639 94.0352C63.4639 92.9336 63.7314 92.0762 64.2666 91.4629C64.8018 90.8496 65.4834 90.543 66.3115 90.543Z"/>
<path d="M69.8916 88.3633L70.9463 88.3633L70.9463 91.5742C71.1963 91.2578 71.4209 91.0352 71.6201 90.9062C71.96 90.6836 72.3838 90.5723 72.8916 90.5723C73.8018 90.5723 74.4189 90.8906 74.7432 91.5273C74.9189 91.875 75.0068 92.3574 75.0068 92.9746L75.0068 97L73.9229 97L73.9229 93.0449C73.9229 92.584 73.8643 92.2461 73.7471 92.0312C73.5557 91.6875 73.1963 91.5156 72.6689 91.5156C72.2314 91.5156 71.835 91.666 71.4795 91.9668C71.124 92.2676 70.9463 92.8359 70.9463 93.6719L70.9463 97L69.8916 97L69.8916 88.3633Z"/>
<path d="M77.0518 90.7246L78.2588 95.6699L79.4834 90.7246L80.667 90.7246L81.8975 95.6406L83.1807 90.7246L84.2354 90.7246L82.4131 97L81.3174 97L80.04 92.1426L78.8037 97L77.708 97L75.8975 90.7246L77.0518 90.7246Z"/>
<path d="M86.04 95.3301C86.04 95.6348 86.1514 95.875 86.374 96.0508C86.5967 96.2266 86.8604 96.3145 87.165 96.3145C87.5361 96.3145 87.8955 96.2285 88.2432 96.0566C88.8291 95.7715 89.1221 95.3047 89.1221 94.6562L89.1221 93.8066C88.9932 93.8887 88.8271 93.957 88.624 94.0117C88.4209 94.0664 88.2217 94.1055 88.0264 94.1289L87.3877 94.2109C87.0049 94.2617 86.7178 94.3418 86.5264 94.4512C86.2021 94.6348 86.04 94.9277 86.04 95.3301ZM88.5947 93.1973C88.8369 93.166 88.999 93.0645 89.0811 92.8926C89.1279 92.7988 89.1514 92.6641 89.1514 92.4883C89.1514 92.1289 89.0234 91.8682 88.7676 91.7061C88.5117 91.5439 88.1455 91.4629 87.6689 91.4629C87.1182 91.4629 86.7275 91.6113 86.4971 91.9082C86.3682 92.0723 86.2842 92.3164 86.2451 92.6406L85.2607 92.6406C85.2803 91.8672 85.5312 91.3291 86.0137 91.0264C86.4961 90.7236 87.0557 90.5723 87.6924 90.5723C88.4307 90.5723 89.0303 90.7129 89.4912 90.9941C89.9482 91.2754 90.1768 91.7129 90.1768 92.3066L90.1768 95.9219C90.1768 96.0313 90.1992 96.1191 90.2441 96.1855C90.2891 96.252 90.3838 96.2852 90.5283 96.2852C90.5752 96.2852 90.6279 96.2822 90.6865 96.2764C90.7451 96.2705 90.8076 96.2617 90.874 96.25L90.874 97.0293C90.71 97.0762 90.585 97.1055 90.499 97.1172C90.4131 97.1289 90.2959 97.1348 90.1475 97.1348C89.7842 97.1348 89.5205 97.0059 89.3564 96.748C89.2705 96.6113 89.21 96.418 89.1748 96.168C88.96 96.4492 88.6514 96.6934 88.249 96.9004C87.8467 97.1074 87.4033 97.2109 86.9189 97.2109C86.3369 97.2109 85.8613 97.0342 85.4922 96.6807C85.123 96.3271 84.9385 95.8848 84.9385 95.3535C84.9385 94.7715 85.1201 94.3203 85.4834 94C85.8467 93.6797 86.3232 93.4824 86.9131 93.4082L88.5947 93.1973Z"/>
<path d="M91.9346 90.7246L92.9365 90.7246L92.9365 91.8086C93.0186 91.5977 93.2197 91.3408 93.54 91.0381C93.8604 90.7354 94.2295 90.584 94.6475 90.584C94.667 90.584 94.7002 90.5859 94.7471 90.5898C94.7939 90.5938 94.874 90.6016 94.9873 90.6133L94.9873 91.7266C94.9248 91.7148 94.8672 91.707 94.8145 91.7031C94.7617 91.6992 94.7041 91.6973 94.6416 91.6973C94.1104 91.6973 93.7021 91.8682 93.417 92.21C93.1318 92.5518 92.9893 92.9453 92.9893 93.3906L92.9893 97L91.9346 97L91.9346 90.7246Z"/>
<path d="M95.4326 96.168L99.1533 91.668L95.708 91.668L95.708 90.7246L100.571 90.7246L100.571 91.5859L96.874 96.0566L100.683 96.0566L100.683 97L95.4326 97L95.4326 96.168Z"/>
<path d="M102.388 90.7246L103.595 95.6699L104.819 90.7246L106.003 90.7246L107.233 95.6406L108.517 90.7246L109.571 90.7246L107.749 97L106.653 97L105.376 92.1426L104.14 97L103.044 97L101.233 90.7246L102.388 90.7246Z"/>
<path d="M111.376 95.3301C111.376 95.6348 111.487 95.875 111.71 96.0508C111.933 96.2266 112.196 96.3145 112.501 96.3145C112.872 96.3145 113.231 96.2285 113.579 96.0566C114.165 95.7715 114.458 95.3047 114.458 94.6562L114.458 93.8066C114.329 93.8887 114.163 93.957 113.96 94.0117C113.757 94.0664 113.558 94.1055 113.362 94.1289L112.724 94.2109C112.341 94.2617 112.054 94.3418 111.862 94.4512C111.538 94.6348 111.376 94.9277 111.376 95.3301ZM113.931 93.1973C114.173 93.166 114.335 93.0645 114.417 92.8926C114.464 92.7988 114.487 92.6641 114.487 92.4883C114.487 92.1289 114.359 91.8682 114.104 91.7061C113.848 91.5439 113.481 91.4629 113.005 91.4629C112.454 91.4629 112.063 91.6113 111.833 91.9082C111.704 92.0723 111.62 92.3164 111.581 92.6406L110.597 92.6406C110.616 91.8672 110.867 91.3291 111.35 91.0264C111.832 90.7236 112.392 90.5723 113.028 90.5723C113.767 90.5723 114.366 90.7129 114.827 90.9941C115.284 91.2754 115.513 91.7129 115.513 92.3066L115.513 95.9219C115.513 96.0313 115.535 96.1191 115.58 96.1855C115.625 96.252 115.72 96.2852 115.864 96.2852C115.911 96.2852 115.964 96.2822 116.022 96.2764C116.081 96.2705 116.144 96.2617 116.21 96.25L116.21 97.0293C116.046 97.0762 115.921 97.1055 115.835 97.1172C115.749 97.1289 115.632 97.1348 115.483 97.1348C115.12 97.1348 114.856 97.0059 114.692 96.748C114.606 96.6113 114.546 96.418 114.511 96.168C114.296 96.4492 113.987 96.6934 113.585 96.9004C113.183 97.1074 112.739 97.2109 112.255 97.2109C111.673 97.2109 111.197 97.0342 110.828 96.6807C110.459 96.3271 110.274 95.8848 110.274 95.3535C110.274 94.7715 110.456 94.3203 110.819 94C111.183 93.6797 111.659 93.4824 112.249 93.4082L113.931 93.1973Z"/>
<path d="M117.271 88.3926L118.325 88.3926L118.325 97L117.271 97L117.271 88.3926Z"/>
<path d="M120.575 93.9355C120.575 94.6074 120.718 95.1699 121.003 95.623C121.288 96.0762 121.745 96.3027 122.374 96.3027C122.862 96.3027 123.264 96.0928 123.578 95.6729C123.893 95.2529 124.05 94.6504 124.05 93.8652C124.05 93.0723 123.888 92.4854 123.563 92.1045C123.239 91.7236 122.839 91.5332 122.362 91.5332C121.831 91.5332 121.4 91.7363 121.07 92.1426C120.74 92.5488 120.575 93.1465 120.575 93.9355ZM122.163 90.6133C122.644 90.6133 123.046 90.7148 123.37 90.918C123.558 91.0352 123.771 91.2402 124.009 91.5332L124.009 88.3633L125.022 88.3633L125.022 97L124.073 97L124.073 96.127C123.827 96.5137 123.536 96.793 123.2 96.9648C122.864 97.1367 122.479 97.2227 122.046 97.2227C121.347 97.2227 120.741 96.9287 120.229 96.3408C119.718 95.7529 119.462 94.9707 119.462 93.9941C119.462 93.0801 119.695 92.2881 120.162 91.6182C120.629 90.9482 121.296 90.6133 122.163 90.6133Z"/>
<path d="M127.208 95.0312C127.239 95.3828 127.327 95.6523 127.472 95.8398C127.737 96.1797 128.198 96.3496 128.854 96.3496C129.245 96.3496 129.589 96.2646 129.886 96.0947C130.183 95.9248 130.331 95.6621 130.331 95.3066C130.331 95.0371 130.212 94.832 129.974 94.6914C129.821 94.6055 129.521 94.5059 129.071 94.3926L128.233 94.1816C127.698 94.0488 127.304 93.9004 127.05 93.7363C126.597 93.4512 126.37 93.0566 126.37 92.5527C126.37 91.959 126.584 91.4785 127.012 91.1113C127.439 90.7441 128.015 90.5605 128.737 90.5605C129.683 90.5605 130.364 90.8379 130.782 91.3926C131.044 91.7441 131.171 92.123 131.163 92.5293L130.167 92.5293C130.147 92.291 130.063 92.0742 129.915 91.8789C129.673 91.6016 129.253 91.4629 128.655 91.4629C128.257 91.4629 127.955 91.5391 127.75 91.6914C127.545 91.8438 127.442 92.0449 127.442 92.2949C127.442 92.5684 127.577 92.7871 127.847 92.9512C128.003 93.0488 128.233 93.1348 128.538 93.209L129.235 93.3789C129.993 93.5625 130.501 93.7402 130.759 93.9121C131.169 94.1816 131.374 94.6055 131.374 95.1836C131.374 95.7422 131.162 96.2246 130.738 96.6309C130.314 97.0371 129.669 97.2402 128.802 97.2402C127.868 97.2402 127.207 97.0283 126.818 96.6045C126.43 96.1807 126.222 95.6563 126.194 95.0312L127.208 95.0312Z"/>
<path d="M132.792 88.9727L133.858 88.9727L133.858 90.7246L134.86 90.7246L134.86 91.5859L133.858 91.5859L133.858 95.6816C133.858 95.9004 133.933 96.0469 134.081 96.1211C134.163 96.1641 134.3 96.1855 134.491 96.1855C134.542 96.1855 134.597 96.1846 134.655 96.1826C134.714 96.1807 134.782 96.1758 134.86 96.168L134.86 97C134.739 97.0352 134.613 97.0605 134.482 97.0762C134.352 97.0918 134.21 97.0996 134.058 97.0996C133.565 97.0996 133.231 96.9736 133.056 96.7217C132.88 96.4697 132.792 96.1426 132.792 95.7402L132.792 91.5859L131.942 91.5859L131.942 90.7246L132.792 90.7246L132.792 88.9727Z"/>
<path d="M135.944 90.7246L136.946 90.7246L136.946 91.8086C137.028 91.5977 137.229 91.3408 137.55 91.0381C137.87 90.7354 138.239 90.584 138.657 90.584C138.677 90.584 138.71 90.5859 138.757 90.5898C138.804 90.5938 138.884 90.6016 138.997 90.6133L138.997 91.7266C138.935 91.7148 138.877 91.707 138.824 91.7031C138.771 91.6992 138.714 91.6973 138.651 91.6973C138.12 91.6973 137.712 91.8682 137.427 92.21C137.142 92.5518 136.999 92.9453 136.999 93.3906L136.999 97L135.944 97L135.944 90.7246Z"/>
<path d="M139.507 95.7227L140.731 95.7227L140.731 97L139.507 97L139.507 95.7227Z"/>
<path d="M148.659 88.5742C149.597 88.5742 150.25 88.8174 150.619 89.3037C150.988 89.79 151.173 90.291 151.173 90.8066L150.13 90.8066C150.067 90.4746 149.968 90.2148 149.831 90.0273C149.577 89.6758 149.192 89.5 148.677 89.5C148.087 89.5 147.618 89.7725 147.271 90.3174C146.923 90.8623 146.729 91.6426 146.69 92.6582C146.933 92.3027 147.237 92.0371 147.604 91.8613C147.94 91.7051 148.315 91.627 148.729 91.627C149.433 91.627 150.046 91.8516 150.569 92.3008C151.093 92.75 151.354 93.4199 151.354 94.3105C151.354 95.0723 151.106 95.7471 150.61 96.335C150.114 96.9229 149.407 97.2168 148.489 97.2168C147.704 97.2168 147.026 96.9189 146.456 96.3232C145.886 95.7275 145.601 94.7246 145.601 93.3145C145.601 92.2715 145.728 91.3867 145.981 90.6602C146.47 89.2695 147.362 88.5742 148.659 88.5742ZM148.583 96.2793C149.138 96.2793 149.553 96.0928 149.828 95.7197C150.104 95.3467 150.241 94.9063 150.241 94.3984C150.241 93.9687 150.118 93.5596 149.872 93.1709C149.626 92.7822 149.179 92.5879 148.53 92.5879C148.077 92.5879 147.68 92.7383 147.338 93.0391C146.996 93.3398 146.825 93.793 146.825 94.3984C146.825 94.9297 146.98 95.376 147.291 95.7373C147.602 96.0986 148.032 96.2793 148.583 96.2793Z"/>
<path d="M152.972 91.0586L152.972 90.25C153.733 90.1758 154.265 90.0518 154.565 89.8779C154.866 89.7041 155.091 89.293 155.239 88.6445L156.071 88.6445L156.071 97L154.946 97L154.946 91.0586L152.972 91.0586Z"/>
<path d="M61.3896 102.75L61.3896 103.67C61.1201 103.932 60.7617 104.387 60.3145 105.035C59.8672 105.684 59.4717 106.383 59.1279 107.133C58.7881 107.863 58.5303 108.529 58.3545 109.131C58.2412 109.518 58.0947 110.141 57.915 111L56.749 111C57.0146 109.398 57.6006 107.805 58.5068 106.219C59.042 105.289 59.6045 104.486 60.1943 103.811L55.5537 103.811L55.5537 102.75L61.3896 102.75Z"/>
<path d="M63.3818 108.973C63.4131 109.555 63.6377 109.957 64.0557 110.18C64.2705 110.297 64.5127 110.355 64.7822 110.355C65.2861 110.355 65.7158 110.146 66.0713 109.726C66.4268 109.306 66.6787 108.453 66.8271 107.168C66.5928 107.539 66.3027 107.8 65.957 107.95C65.6113 108.101 65.2393 108.176 64.8408 108.176C64.0322 108.176 63.3926 107.924 62.9219 107.42C62.4512 106.916 62.2158 106.268 62.2158 105.475C62.2158 104.713 62.4482 104.043 62.9131 103.465C63.3779 102.887 64.0635 102.598 64.9697 102.598C66.1924 102.598 67.0361 103.148 67.501 104.25C67.7588 104.855 67.8877 105.613 67.8877 106.523C67.8877 107.551 67.7334 108.461 67.4248 109.254C66.9131 110.574 66.0459 111.234 64.8232 111.234C64.0029 111.234 63.3799 111.02 62.9541 110.59C62.5283 110.16 62.3154 109.621 62.3154 108.973L63.3818 108.973ZM64.9814 107.25C65.3994 107.25 65.7812 107.112 66.127 106.837C66.4727 106.562 66.6455 106.08 66.6455 105.393C66.6455 104.775 66.4902 104.315 66.1797 104.013C65.8691 103.71 65.4736 103.559 64.9932 103.559C64.4775 103.559 64.0684 103.731 63.7656 104.077C63.4629 104.423 63.3115 104.885 63.3115 105.463C63.3115 106.01 63.4443 106.444 63.71 106.767C63.9756 107.089 64.3994 107.25 64.9814 107.25Z"/>
<path d="M69.9443 108.861C70.0146 109.463 70.2939 109.879 70.7822 110.109C71.0322 110.227 71.3213 110.285 71.6494 110.285C72.2744 110.285 72.7373 110.086 73.0381 109.688C73.3389 109.289 73.4893 108.848 73.4893 108.363C73.4893 107.777 73.3105 107.324 72.9531 107.004C72.5957 106.684 72.167 106.523 71.667 106.523C71.3037 106.523 70.9922 106.594 70.7324 106.734C70.4727 106.875 70.251 107.07 70.0674 107.32L69.1533 107.268L69.792 102.75L74.1514 102.75L74.1514 103.77L70.583 103.77L70.2256 106.102C70.4209 105.953 70.6064 105.842 70.7822 105.768C71.0947 105.639 71.4561 105.574 71.8662 105.574C72.6357 105.574 73.2881 105.822 73.8232 106.318C74.3584 106.814 74.626 107.443 74.626 108.205C74.626 108.998 74.3809 109.697 73.8906 110.303C73.4004 110.908 72.6182 111.211 71.5439 111.211C70.8604 111.211 70.2559 111.019 69.7305 110.634C69.2051 110.249 68.9111 109.658 68.8486 108.861L69.9443 108.861Z"/>
<path d="M78.2529 111.229C77.2607 111.229 76.541 110.956 76.0938 110.411C75.6465 109.866 75.4229 109.203 75.4229 108.422L76.5244 108.422C76.5713 108.965 76.6729 109.359 76.8291 109.605C77.1025 110.047 77.5967 110.268 78.3115 110.268C78.8662 110.268 79.3115 110.119 79.6475 109.822C79.9834 109.525 80.1514 109.143 80.1514 108.674C80.1514 108.096 79.9746 107.691 79.6211 107.461C79.2676 107.23 78.7764 107.115 78.1475 107.115C78.0771 107.115 78.0059 107.116 77.9336 107.118C77.8613 107.12 77.7881 107.123 77.7139 107.127L77.7139 106.195C77.8232 106.207 77.915 106.215 77.9893 106.219C78.0635 106.223 78.1436 106.225 78.2295 106.225C78.624 106.225 78.9482 106.162 79.2021 106.037C79.6475 105.818 79.8701 105.428 79.8701 104.865C79.8701 104.447 79.7217 104.125 79.4248 103.898C79.1279 103.672 78.7822 103.559 78.3877 103.559C77.6846 103.559 77.1982 103.793 76.9287 104.262C76.7803 104.52 76.6963 104.887 76.6768 105.363L75.6338 105.363C75.6338 104.738 75.7588 104.207 76.0088 103.77C76.4385 102.988 77.1943 102.598 78.2764 102.598C79.1318 102.598 79.7939 102.788 80.2627 103.169C80.7314 103.55 80.9658 104.102 80.9658 104.824C80.9658 105.34 80.8271 105.758 80.5498 106.078C80.3779 106.277 80.1553 106.434 79.8818 106.547C80.3232 106.668 80.668 106.901 80.916 107.247C81.1641 107.593 81.2881 108.016 81.2881 108.516C81.2881 109.316 81.0244 109.969 80.4971 110.473C79.9697 110.977 79.2217 111.229 78.2529 111.229Z"/>
<path d="M83.4033 108.973C83.4346 109.555 83.6592 109.957 84.0771 110.18C84.292 110.297 84.5342 110.355 84.8037 110.355C85.3076 110.355 85.7373 110.146 86.0928 109.726C86.4482 109.306 86.7002 108.453 86.8486 107.168C86.6143 107.539 86.3242 107.8 85.9785 107.95C85.6328 108.101 85.2607 108.176 84.8623 108.176C84.0537 108.176 83.4141 107.924 82.9434 107.42C82.4727 106.916 82.2373 106.268 82.2373 105.475C82.2373 104.713 82.4697 104.043 82.9346 103.465C83.3994 102.887 84.085 102.598 84.9912 102.598C86.2139 102.598 87.0576 103.148 87.5225 104.25C87.7803 104.855 87.9092 105.613 87.9092 106.523C87.9092 107.551 87.7549 108.461 87.4463 109.254C86.9346 110.574 86.0674 111.234 84.8447 111.234C84.0244 111.234 83.4014 111.02 82.9756 110.59C82.5498 110.16 82.3369 109.621 82.3369 108.973L83.4033 108.973ZM85.0029 107.25C85.4209 107.25 85.8027 107.112 86.1484 106.837C86.4941 106.562 86.667 106.08 86.667 105.393C86.667 104.775 86.5117 104.315 86.2012 104.013C85.8906 103.71 85.4951 103.559 85.0146 103.559C84.499 103.559 84.0898 103.731 83.7871 104.077C83.4844 104.423 83.333 104.885 83.333 105.463C83.333 106.01 83.4658 106.444 83.7314 106.767C83.9971 107.089 84.4209 107.25 85.0029 107.25Z"/>
<path d="M92.7314 102.393L93.8975 102.393L93.8975 109.975L98.2568 109.975L98.2568 111L92.7314 111L92.7314 102.393Z"/>
<path d="M101.755 110.32C102.454 110.32 102.934 110.056 103.193 109.526C103.453 108.997 103.583 108.408 103.583 107.76C103.583 107.174 103.489 106.697 103.302 106.33C103.005 105.752 102.493 105.463 101.767 105.463C101.122 105.463 100.653 105.709 100.36 106.201C100.067 106.693 99.9209 107.287 99.9209 107.982C99.9209 108.65 100.067 109.207 100.36 109.652C100.653 110.098 101.118 110.32 101.755 110.32ZM101.796 104.543C102.604 104.543 103.288 104.812 103.847 105.352C104.405 105.891 104.685 106.684 104.685 107.73C104.685 108.742 104.438 109.578 103.946 110.238C103.454 110.898 102.69 111.229 101.655 111.229C100.792 111.229 100.106 110.937 99.5986 110.353C99.0908 109.769 98.8369 108.984 98.8369 108C98.8369 106.945 99.1045 106.105 99.6396 105.48C100.175 104.855 100.894 104.543 101.796 104.543ZM102.253 102.533L103.349 102.533L103.349 103.752L102.253 103.752L102.253 102.533ZM100.319 102.533L101.415 102.533L101.415 103.752L100.319 103.752L100.319 102.533Z"/>
<path d="M105.968 104.725L106.97 104.725L106.97 105.809C107.052 105.598 107.253 105.341 107.573 105.038C107.894 104.735 108.263 104.584 108.681 104.584C108.7 104.584 108.733 104.586 108.78 104.59C108.827 104.594 108.907 104.602 109.021 104.613L109.021 105.727C108.958 105.715 108.9 105.707 108.848 105.703C108.795 105.699 108.737 105.697 108.675 105.697C108.144 105.697 107.735 105.868 107.45 106.21C107.165 106.552 107.022 106.945 107.022 107.391L107.022 111L105.968 111L105.968 104.725Z"/>
<path d="M109.964 104.725L110.966 104.725L110.966 105.809C111.048 105.598 111.249 105.341 111.569 105.038C111.89 104.735 112.259 104.584 112.677 104.584C112.696 104.584 112.729 104.586 112.776 104.59C112.823 104.594 112.903 104.602 113.017 104.613L113.017 105.727C112.954 105.715 112.896 105.707 112.844 105.703C112.791 105.699 112.733 105.697 112.671 105.697C112.14 105.697 111.731 105.868 111.446 106.21C111.161 106.552 111.019 106.945 111.019 107.391L111.019 111L109.964 111L109.964 104.725Z"/>
<path d="M114.739 109.33C114.739 109.635 114.851 109.875 115.073 110.051C115.296 110.227 115.56 110.314 115.864 110.314C116.235 110.314 116.595 110.229 116.942 110.057C117.528 109.771 117.821 109.305 117.821 108.656L117.821 107.807C117.692 107.889 117.526 107.957 117.323 108.012C117.12 108.066 116.921 108.105 116.726 108.129L116.087 108.211C115.704 108.262 115.417 108.342 115.226 108.451C114.901 108.635 114.739 108.928 114.739 109.33ZM117.294 107.197C117.536 107.166 117.698 107.064 117.78 106.893C117.827 106.799 117.851 106.664 117.851 106.488C117.851 106.129 117.723 105.868 117.467 105.706C117.211 105.544 116.845 105.463 116.368 105.463C115.817 105.463 115.427 105.611 115.196 105.908C115.067 106.072 114.983 106.316 114.944 106.641L113.96 106.641C113.979 105.867 114.23 105.329 114.713 105.026C115.195 104.724 115.755 104.572 116.392 104.572C117.13 104.572 117.729 104.713 118.19 104.994C118.647 105.275 118.876 105.713 118.876 106.307L118.876 109.922C118.876 110.031 118.898 110.119 118.943 110.186C118.988 110.252 119.083 110.285 119.228 110.285C119.274 110.285 119.327 110.282 119.386 110.276C119.444 110.271 119.507 110.262 119.573 110.25L119.573 111.029C119.409 111.076 119.284 111.105 119.198 111.117C119.112 111.129 118.995 111.135 118.847 111.135C118.483 111.135 118.22 111.006 118.056 110.748C117.97 110.611 117.909 110.418 117.874 110.168C117.659 110.449 117.351 110.693 116.948 110.9C116.546 111.107 116.103 111.211 115.618 111.211C115.036 111.211 114.561 111.034 114.191 110.681C113.822 110.327 113.638 109.885 113.638 109.354C113.638 108.771 113.819 108.32 114.183 108C114.546 107.68 115.022 107.482 115.612 107.408L117.294 107.197Z"/>
<path d="M123.024 104.543C123.731 104.543 124.307 104.715 124.75 105.059C125.193 105.402 125.46 105.994 125.55 106.834L124.524 106.834C124.462 106.447 124.319 106.126 124.097 105.87C123.874 105.614 123.517 105.486 123.024 105.486C122.353 105.486 121.872 105.814 121.583 106.471C121.396 106.896 121.302 107.422 121.302 108.047C121.302 108.676 121.435 109.205 121.7 109.635C121.966 110.064 122.384 110.279 122.954 110.279C123.392 110.279 123.738 110.146 123.994 109.878C124.25 109.61 124.427 109.244 124.524 108.779L125.55 108.779C125.433 109.611 125.14 110.22 124.671 110.604C124.202 110.989 123.603 111.182 122.872 111.182C122.052 111.182 121.397 110.882 120.909 110.282C120.421 109.683 120.177 108.934 120.177 108.035C120.177 106.934 120.444 106.076 120.979 105.463C121.515 104.85 122.196 104.543 123.024 104.543Z"/>
<path d="M126.604 102.363L127.659 102.363L127.659 105.574C127.909 105.258 128.134 105.035 128.333 104.906C128.673 104.684 129.097 104.572 129.604 104.572C130.515 104.572 131.132 104.891 131.456 105.527C131.632 105.875 131.72 106.357 131.72 106.975L131.72 111L130.636 111L130.636 107.045C130.636 106.584 130.577 106.246 130.46 106.031C130.269 105.687 129.909 105.516 129.382 105.516C128.944 105.516 128.548 105.666 128.192 105.967C127.837 106.268 127.659 106.836 127.659 107.672L127.659 111L126.604 111L126.604 102.363Z"/>
<path d="M56.292 116.393L57.4697 116.393L57.4697 125L56.292 125L56.292 116.393Z"/>
<path d="M59.2217 118.725L60.2236 118.725L60.2236 119.615C60.5205 119.248 60.835 118.984 61.167 118.824C61.499 118.664 61.8682 118.584 62.2744 118.584C63.165 118.584 63.7666 118.895 64.0791 119.516C64.251 119.855 64.3369 120.342 64.3369 120.975L64.3369 125L63.2646 125L63.2646 121.045C63.2646 120.662 63.208 120.354 63.0947 120.119C62.9072 119.729 62.5674 119.533 62.0752 119.533C61.8252 119.533 61.6201 119.559 61.46 119.609C61.1709 119.695 60.917 119.867 60.6982 120.125C60.5225 120.332 60.4082 120.546 60.3555 120.767C60.3027 120.987 60.2764 121.303 60.2764 121.713L60.2764 125L59.2217 125L59.2217 118.725Z"/>
<path d="M65.8955 116.363L66.9502 116.363L66.9502 119.574C67.2002 119.258 67.4248 119.035 67.624 118.906C67.9639 118.684 68.3877 118.572 68.8955 118.572C69.8057 118.572 70.4229 118.891 70.7471 119.527C70.9229 119.875 71.0107 120.357 71.0107 120.975L71.0107 125L69.9268 125L69.9268 121.045C69.9268 120.584 69.8682 120.246 69.751 120.031C69.5596 119.687 69.2002 119.516 68.6729 119.516C68.2354 119.516 67.8389 119.666 67.4834 119.967C67.1279 120.268 66.9502 120.836 66.9502 121.672L66.9502 125L65.8955 125L65.8955 116.363Z"/>
<path d="M73.3779 123.33C73.3779 123.635 73.4893 123.875 73.7119 124.051C73.9346 124.227 74.1982 124.314 74.5029 124.314C74.874 124.314 75.2334 124.229 75.5811 124.057C76.167 123.771 76.46 123.305 76.46 122.656L76.46 121.807C76.3311 121.889 76.165 121.957 75.9619 122.012C75.7588 122.066 75.5596 122.105 75.3643 122.129L74.7256 122.211C74.3428 122.262 74.0557 122.342 73.8643 122.451C73.54 122.635 73.3779 122.928 73.3779 123.33ZM75.9326 121.197C76.1748 121.166 76.3369 121.064 76.4189 120.893C76.4658 120.799 76.4893 120.664 76.4893 120.488C76.4893 120.129 76.3613 119.868 76.1055 119.706C75.8496 119.544 75.4834 119.463 75.0068 119.463C74.4561 119.463 74.0654 119.611 73.835 119.908C73.7061 120.072 73.6221 120.316 73.583 120.641L72.5986 120.641C72.6182 119.867 72.8691 119.329 73.3516 119.026C73.834 118.724 74.3936 118.572 75.0303 118.572C75.7686 118.572 76.3682 118.713 76.8291 118.994C77.2861 119.275 77.5146 119.713 77.5146 120.307L77.5146 123.922C77.5146 124.031 77.5371 124.119 77.582 124.186C77.627 124.252 77.7217 124.285 77.8662 124.285C77.9131 124.285 77.9658 124.282 78.0244 124.276C78.083 124.271 78.1455 124.262 78.2119 124.25L78.2119 125.029C78.0479 125.076 77.9229 125.105 77.8369 125.117C77.751 125.129 77.6338 125.135 77.4854 125.135C77.1221 125.135 76.8584 125.006 76.6943 124.748C76.6084 124.611 76.5479 124.418 76.5127 124.168C76.2979 124.449 75.9893 124.693 75.5869 124.9C75.1846 125.107 74.7412 125.211 74.2568 125.211C73.6748 125.211 73.1992 125.034 72.8301 124.681C72.4609 124.327 72.2764 123.885 72.2764 123.354C72.2764 122.771 72.458 122.32 72.8213 122C73.1846 121.68 73.6611 121.482 74.251 121.408L75.9326 121.197Z"/>
<path d="M79.1611 116.363L80.1865 116.363L80.1865 119.486C80.417 119.186 80.6924 118.956 81.0127 118.798C81.333 118.64 81.6807 118.561 82.0557 118.561C82.8369 118.561 83.4707 118.829 83.957 119.366C84.4434 119.903 84.6865 120.695 84.6865 121.742C84.6865 122.734 84.4463 123.559 83.9658 124.215C83.4854 124.871 82.8193 125.199 81.9678 125.199C81.4912 125.199 81.0889 125.084 80.7607 124.854C80.5654 124.717 80.3564 124.498 80.1338 124.197L80.1338 125L79.1611 125L79.1611 116.363ZM81.9033 124.268C82.4736 124.268 82.9004 124.041 83.1836 123.588C83.4668 123.135 83.6084 122.537 83.6084 121.795C83.6084 121.135 83.4668 120.588 83.1836 120.154C82.9004 119.721 82.4834 119.504 81.9326 119.504C81.4521 119.504 81.0313 119.682 80.6699 120.037C80.3086 120.393 80.1279 120.979 80.1279 121.795C80.1279 122.385 80.2021 122.863 80.3506 123.23C80.6279 123.922 81.1455 124.268 81.9033 124.268Z"/>
<path d="M88.5303 118.584C88.9756 118.584 89.4072 118.688 89.8252 118.897C90.2432 119.106 90.5615 119.377 90.7803 119.709C90.9912 120.025 91.1318 120.395 91.2021 120.816C91.2646 121.105 91.2959 121.566 91.2959 122.199L86.6963 122.199C86.7158 122.836 86.8662 123.347 87.1475 123.731C87.4287 124.116 87.8643 124.309 88.4541 124.309C89.0049 124.309 89.4443 124.127 89.7725 123.764C89.96 123.553 90.0928 123.309 90.1709 123.031L91.208 123.031C91.1807 123.262 91.0898 123.519 90.9355 123.802C90.7812 124.085 90.6084 124.316 90.417 124.496C90.0967 124.809 89.7002 125.02 89.2275 125.129C88.9736 125.191 88.6865 125.223 88.3662 125.223C87.585 125.223 86.9229 124.938 86.3799 124.37C85.8369 123.802 85.5654 123.006 85.5654 121.982C85.5654 120.975 85.8389 120.156 86.3857 119.527C86.9326 118.898 87.6475 118.584 88.5303 118.584ZM90.2119 121.361C90.1689 120.904 90.0693 120.539 89.9131 120.266C89.624 119.758 89.1416 119.504 88.4658 119.504C87.9814 119.504 87.5752 119.679 87.2471 120.028C86.9189 120.378 86.7451 120.822 86.7256 121.361L90.2119 121.361Z"/>
<path d="M92.6201 118.725L93.6221 118.725L93.6221 119.809C93.7041 119.598 93.9053 119.341 94.2256 119.038C94.5459 118.735 94.915 118.584 95.333 118.584C95.3525 118.584 95.3857 118.586 95.4326 118.59C95.4795 118.594 95.5596 118.602 95.6729 118.613L95.6729 119.727C95.6104 119.715 95.5527 119.707 95.5 119.703C95.4473 119.699 95.3896 119.697 95.3271 119.697C94.7959 119.697 94.3877 119.868 94.1025 120.21C93.8174 120.552 93.6748 120.945 93.6748 121.391L93.6748 125L92.6201 125L92.6201 118.725Z"/>
<path d="M97.1436 118.807L98.3682 118.807L98.3682 120.084L97.1436 120.084L97.1436 118.807ZM97.1436 123.723L98.3682 123.723L98.3682 125L97.1436 125L97.1436 123.723Z"/>
<path d="M57.9268 138.336C58.1898 138.336 58.4059 138.309 58.5752 138.254C58.8773 138.152 59.1247 137.957 59.3174 137.668C59.471 137.436 59.5817 137.139 59.6494 136.777C59.6885 136.561 59.708 136.361 59.708 136.176C59.708 135.465 59.5667 134.913 59.2842 134.52C59.0016 134.126 58.5465 133.93 57.9189 133.93L56.54 133.93L56.54 138.336L57.9268 138.336ZM55.7588 133.262L58.083 133.262C58.8721 133.262 59.484 133.542 59.9189 134.102C60.307 134.607 60.501 135.254 60.501 136.043C60.501 136.652 60.3864 137.203 60.1572 137.695C59.7536 138.565 59.0596 139 58.0752 139L55.7588 139L55.7588 133.262Z"/>
<path d="M61.4072 134.836L62.1221 134.836L62.1221 139L61.4072 139L61.4072 134.836ZM61.4072 133.262L62.1221 133.262L62.1221 134.059L61.4072 134.059L61.4072 133.262Z"/>
<path d="M64.9502 138.527C65.2783 138.527 65.5511 138.39 65.7686 138.115C65.986 137.84 66.0947 137.43 66.0947 136.883C66.0947 136.549 66.0465 136.263 65.9502 136.023C65.7679 135.562 65.4346 135.332 64.9502 135.332C64.4632 135.332 64.1299 135.576 63.9502 136.062C63.8538 136.323 63.8057 136.654 63.8057 137.055C63.8057 137.378 63.8538 137.652 63.9502 137.879C64.1325 138.311 64.4658 138.527 64.9502 138.527ZM63.1299 134.836L63.8135 134.836L63.8135 135.391C63.9541 135.201 64.1077 135.053 64.2744 134.949C64.5114 134.793 64.79 134.715 65.1104 134.715C65.5843 134.715 65.9867 134.896 66.3174 135.26C66.6481 135.623 66.8135 136.142 66.8135 136.816C66.8135 137.728 66.5752 138.379 66.0986 138.77C65.7965 139.017 65.445 139.141 65.0439 139.141C64.7288 139.141 64.4645 139.072 64.251 138.934C64.126 138.855 63.9867 138.721 63.833 138.531L63.833 140.668L63.1299 140.668L63.1299 134.836Z"/>
<path d="M67.6533 133.262L68.3564 133.262L68.3564 139L67.6533 139L67.6533 133.262Z"/>
<path d="M69.5791 138.148L70.3955 138.148L70.3955 139L69.5791 139L69.5791 138.148Z"/>
<path d="M72.1064 133.262L73.1885 137.93L74.4854 133.262L75.3291 133.262L76.626 137.93L77.708 133.262L78.5596 133.262L77.0518 139L76.2354 139L74.9111 134.242L73.5791 139L72.7627 139L71.2627 133.262L72.1064 133.262Z"/>
<path d="M78.915 138.148L79.7314 138.148L79.7314 139L78.915 139L78.915 138.148Z"/>
<path d="M81.2393 133.262L82.0244 133.262L82.0244 139L81.2393 139L81.2393 133.262Z"/>
<path d="M83.1924 134.816L83.8604 134.816L83.8604 135.41C84.0583 135.165 84.2679 134.99 84.4893 134.883C84.7106 134.776 84.9567 134.723 85.2275 134.723C85.8213 134.723 86.2223 134.93 86.4307 135.344C86.5452 135.57 86.6025 135.895 86.6025 136.316L86.6025 139L85.8877 139L85.8877 136.363C85.8877 136.108 85.8499 135.902 85.7744 135.746C85.6494 135.486 85.4229 135.355 85.0947 135.355C84.9281 135.355 84.7913 135.372 84.6846 135.406C84.4919 135.464 84.3226 135.578 84.1768 135.75C84.0596 135.888 83.9834 136.031 83.9482 136.178C83.9131 136.325 83.8955 136.535 83.8955 136.809L83.8955 139L83.1924 139L83.1924 134.816Z"/>
<path d="M89.1182 134.742C89.4463 134.742 89.7327 134.823 89.9775 134.984C90.1104 135.076 90.2458 135.208 90.3838 135.383L90.3838 134.855L91.0322 134.855L91.0322 138.66C91.0322 139.191 90.9541 139.611 90.7979 139.918C90.5062 140.486 89.9554 140.77 89.1455 140.77C88.695 140.77 88.3161 140.669 88.0088 140.467C87.7015 140.265 87.5296 139.949 87.4932 139.52L88.208 139.52C88.2419 139.707 88.3096 139.852 88.4111 139.953C88.57 140.109 88.82 140.188 89.1611 140.188C89.7002 140.188 90.0531 139.997 90.2197 139.617C90.3187 139.393 90.3643 138.993 90.3564 138.418C90.2158 138.632 90.0465 138.79 89.8486 138.895C89.6507 138.999 89.389 139.051 89.0635 139.051C88.6104 139.051 88.2139 138.89 87.874 138.568C87.5342 138.247 87.3643 137.715 87.3643 136.973C87.3643 136.272 87.5355 135.725 87.8779 135.332C88.2204 134.939 88.6338 134.742 89.1182 134.742ZM90.3838 136.891C90.3838 136.372 90.277 135.988 90.0635 135.738C89.8499 135.488 89.5778 135.363 89.2471 135.363C88.7523 135.363 88.4137 135.595 88.2314 136.059C88.1351 136.306 88.0869 136.63 88.0869 137.031C88.0869 137.503 88.1826 137.861 88.374 138.107C88.5654 138.354 88.8226 138.477 89.1455 138.477C89.6507 138.477 90.0062 138.249 90.2119 137.793C90.3265 137.535 90.3838 137.234 90.3838 136.891Z"/>
<path d="M93.833 134.723C94.1299 134.723 94.4176 134.792 94.6963 134.932C94.9749 135.071 95.1872 135.251 95.333 135.473C95.4736 135.684 95.5674 135.93 95.6143 136.211C95.6559 136.404 95.6768 136.711 95.6768 137.133L92.6104 137.133C92.6234 137.557 92.7236 137.898 92.9111 138.154C93.0986 138.411 93.389 138.539 93.7822 138.539C94.1494 138.539 94.4424 138.418 94.6611 138.176C94.7861 138.035 94.8747 137.872 94.9268 137.688L95.6182 137.688C95.5999 137.841 95.5394 138.012 95.4365 138.201C95.3337 138.39 95.2184 138.544 95.0908 138.664C94.8773 138.872 94.613 139.013 94.2979 139.086C94.1286 139.128 93.9372 139.148 93.7236 139.148C93.2028 139.148 92.7614 138.959 92.3994 138.58C92.0374 138.201 91.8564 137.671 91.8564 136.988C91.8564 136.316 92.0387 135.771 92.4033 135.352C92.7679 134.932 93.2445 134.723 93.833 134.723ZM94.9541 136.574C94.9255 136.27 94.859 136.026 94.7549 135.844C94.5622 135.505 94.2406 135.336 93.79 135.336C93.4671 135.336 93.1963 135.452 92.9775 135.686C92.7588 135.919 92.6429 136.215 92.6299 136.574L94.9541 136.574Z"/>
<path d="M96.54 134.816L97.208 134.816L97.208 135.41C97.4059 135.165 97.6156 134.99 97.8369 134.883C98.0583 134.776 98.3044 134.723 98.5752 134.723C99.1689 134.723 99.57 134.93 99.7783 135.344C99.8929 135.57 99.9502 135.895 99.9502 136.316L99.9502 139L99.2354 139L99.2354 136.363C99.2354 136.108 99.1976 135.902 99.1221 135.746C98.9971 135.486 98.7705 135.355 98.4424 135.355C98.2757 135.355 98.139 135.372 98.0322 135.406C97.8395 135.464 97.6702 135.578 97.5244 135.75C97.4072 135.888 97.3311 136.031 97.2959 136.178C97.2607 136.325 97.2432 136.535 97.2432 136.809L97.2432 139L96.54 139L96.54 134.816Z"/>
<path d="M100.989 134.836L101.704 134.836L101.704 139L100.989 139L100.989 134.836ZM100.989 133.262L101.704 133.262L101.704 134.059L100.989 134.059L100.989 133.262Z"/>
<path d="M104.509 134.723C104.806 134.723 105.093 134.792 105.372 134.932C105.651 135.071 105.863 135.251 106.009 135.473C106.149 135.684 106.243 135.93 106.29 136.211C106.332 136.404 106.353 136.711 106.353 137.133L103.286 137.133C103.299 137.557 103.399 137.898 103.587 138.154C103.774 138.411 104.065 138.539 104.458 138.539C104.825 138.539 105.118 138.418 105.337 138.176C105.462 138.035 105.55 137.872 105.603 137.688L106.294 137.688C106.276 137.841 106.215 138.012 106.112 138.201C106.009 138.39 105.894 138.544 105.767 138.664C105.553 138.872 105.289 139.013 104.974 139.086C104.804 139.128 104.613 139.148 104.399 139.148C103.879 139.148 103.437 138.959 103.075 138.58C102.713 138.201 102.532 137.671 102.532 136.988C102.532 136.316 102.715 135.771 103.079 135.352C103.444 134.932 103.92 134.723 104.509 134.723ZM105.63 136.574C105.601 136.27 105.535 136.026 105.431 135.844C105.238 135.505 104.916 135.336 104.466 135.336C104.143 135.336 103.872 135.452 103.653 135.686C103.435 135.919 103.319 136.215 103.306 136.574L105.63 136.574Z"/>
<path d="M107.919 134.816L107.919 137.594C107.919 137.807 107.953 137.982 108.021 138.117C108.146 138.367 108.379 138.492 108.72 138.492C109.209 138.492 109.543 138.273 109.72 137.836C109.816 137.602 109.864 137.28 109.864 136.871L109.864 134.816L110.567 134.816L110.567 139L109.903 139L109.911 138.383C109.82 138.542 109.707 138.676 109.571 138.785C109.303 139.004 108.978 139.113 108.595 139.113C107.998 139.113 107.592 138.914 107.376 138.516C107.259 138.302 107.2 138.017 107.2 137.66L107.2 134.816L107.919 134.816Z"/>
<path d="M111.685 134.816L112.353 134.816L112.353 135.539C112.407 135.398 112.541 135.227 112.755 135.025C112.968 134.824 113.215 134.723 113.493 134.723C113.506 134.723 113.528 134.724 113.56 134.727C113.591 134.729 113.644 134.734 113.72 134.742L113.72 135.484C113.678 135.477 113.64 135.471 113.604 135.469C113.569 135.466 113.531 135.465 113.489 135.465C113.135 135.465 112.863 135.579 112.673 135.807C112.483 136.035 112.388 136.297 112.388 136.594L112.388 139L111.685 139L111.685 134.816Z"/>
<path d="M116.72 133.262L120.7 133.262L120.7 133.965L117.497 133.965L117.497 135.707L120.313 135.707L120.313 136.391L117.497 136.391L117.497 139L116.72 139L116.72 133.262Z"/>
<path d="M121.552 133.262L122.337 133.262L122.337 135.633L125.321 135.633L125.321 133.262L126.106 133.262L126.106 139L125.321 139L125.321 136.316L122.337 136.316L122.337 139L121.552 139L121.552 133.262Z"/>
<path d="M129.438 134.836L130.153 134.836L130.153 139L129.438 139L129.438 134.836ZM129.438 133.262L130.153 133.262L130.153 134.059L129.438 134.059L129.438 133.262Z"/>
<path d="M131.235 133.262L131.938 133.262L131.938 139L131.235 139L131.235 133.262Z"/>
<path d="M132.978 133.262L133.653 133.262L133.653 136.594L135.458 134.816L136.356 134.816L134.755 136.383L136.446 139L135.548 139L134.243 136.891L133.653 137.43L133.653 139L132.978 139L132.978 133.262Z"/>
<path d="M138.735 134.723C139.032 134.723 139.32 134.792 139.599 134.932C139.877 135.071 140.09 135.251 140.235 135.473C140.376 135.684 140.47 135.93 140.517 136.211C140.558 136.404 140.579 136.711 140.579 137.133L137.513 137.133C137.526 137.557 137.626 137.898 137.813 138.154C138.001 138.411 138.291 138.539 138.685 138.539C139.052 138.539 139.345 138.418 139.563 138.176C139.688 138.035 139.777 137.872 139.829 137.688L140.521 137.688C140.502 137.841 140.442 138.012 140.339 138.201C140.236 138.39 140.121 138.544 139.993 138.664C139.78 138.872 139.515 139.013 139.2 139.086C139.031 139.128 138.84 139.148 138.626 139.148C138.105 139.148 137.664 138.959 137.302 138.58C136.94 138.201 136.759 137.671 136.759 136.988C136.759 136.316 136.941 135.771 137.306 135.352C137.67 134.932 138.147 134.723 138.735 134.723ZM139.856 136.574C139.828 136.27 139.761 136.026 139.657 135.844C139.465 135.505 139.143 135.336 138.692 135.336C138.369 135.336 138.099 135.452 137.88 135.686C137.661 135.919 137.545 136.215 137.532 136.574L139.856 136.574Z"/>
<path d="M141.462 134.816L142.13 134.816L142.13 135.539C142.185 135.398 142.319 135.227 142.532 135.025C142.746 134.824 142.992 134.723 143.271 134.723C143.284 134.723 143.306 134.724 143.337 134.727C143.368 134.729 143.422 134.734 143.497 134.742L143.497 135.484C143.455 135.477 143.417 135.471 143.382 135.469C143.347 135.466 143.308 135.465 143.267 135.465C142.912 135.465 142.64 135.579 142.45 135.807C142.26 136.035 142.165 136.297 142.165 136.594L142.165 139L141.462 139L141.462 134.816Z"/>
<path d="M147.989 138.547C148.455 138.547 148.775 138.37 148.948 138.018C149.121 137.665 149.208 137.272 149.208 136.84C149.208 136.449 149.146 136.132 149.021 135.887C148.823 135.501 148.481 135.309 147.997 135.309C147.567 135.309 147.255 135.473 147.06 135.801C146.864 136.129 146.767 136.525 146.767 136.988C146.767 137.434 146.864 137.805 147.06 138.102C147.255 138.398 147.565 138.547 147.989 138.547ZM148.017 134.695C148.556 134.695 149.011 134.875 149.384 135.234C149.756 135.594 149.942 136.122 149.942 136.82C149.942 137.495 149.778 138.052 149.45 138.492C149.122 138.932 148.613 139.152 147.923 139.152C147.347 139.152 146.89 138.958 146.552 138.568C146.213 138.179 146.044 137.656 146.044 137C146.044 136.297 146.222 135.737 146.579 135.32C146.936 134.904 147.415 134.695 148.017 134.695ZM148.321 133.355L149.052 133.355L149.052 134.168L148.321 134.168L148.321 133.355ZM147.032 133.355L147.763 133.355L147.763 134.168L147.032 134.168L147.032 133.355Z"/>
<path d="M150.466 138.445L152.946 135.445L150.649 135.445L150.649 134.816L153.892 134.816L153.892 135.391L151.427 138.371L153.966 138.371L153.966 139L150.466 139L150.466 138.445Z"/>
<path d="M154.919 133.648L155.63 133.648L155.63 134.816L156.298 134.816L156.298 135.391L155.63 135.391L155.63 138.121C155.63 138.267 155.679 138.365 155.778 138.414C155.833 138.443 155.924 138.457 156.052 138.457C156.086 138.457 156.122 138.456 156.161 138.455C156.2 138.454 156.246 138.451 156.298 138.445L156.298 139C156.217 139.023 156.133 139.04 156.046 139.051C155.959 139.061 155.864 139.066 155.763 139.066C155.435 139.066 155.212 138.982 155.095 138.814C154.978 138.646 154.919 138.428 154.919 138.16L154.919 135.391L154.353 135.391L154.353 134.816L154.919 134.816L154.919 133.648Z"/>
<path d="M157.704 134.816L157.704 137.594C157.704 137.807 157.738 137.982 157.806 138.117C157.931 138.367 158.164 138.492 158.505 138.492C158.994 138.492 159.328 138.273 159.505 137.836C159.601 137.602 159.649 137.28 159.649 136.871L159.649 134.816L160.353 134.816L160.353 139L159.688 139L159.696 138.383C159.605 138.542 159.492 138.676 159.356 138.785C159.088 139.004 158.763 139.113 158.38 139.113C157.784 139.113 157.377 138.914 157.161 138.516C157.044 138.302 156.985 138.017 156.985 137.66L156.985 134.816L157.704 134.816ZM158.997 133.355L159.728 133.355L159.728 134.168L158.997 134.168L158.997 133.355ZM157.708 133.355L158.438 133.355L158.438 134.168L157.708 134.168L157.708 133.355Z"/>
<path d="M161.47 134.816L162.138 134.816L162.138 135.539C162.192 135.398 162.326 135.227 162.54 135.025C162.754 134.824 163 134.723 163.278 134.723C163.291 134.723 163.313 134.724 163.345 134.727C163.376 134.729 163.429 134.734 163.505 134.742L163.505 135.484C163.463 135.477 163.425 135.471 163.39 135.469C163.354 135.466 163.316 135.465 163.274 135.465C162.92 135.465 162.648 135.579 162.458 135.807C162.268 136.035 162.173 136.297 162.173 136.594L162.173 139L161.47 139L161.47 134.816Z"/>
<path d="M164.099 133.262L164.774 133.262L164.774 136.594L166.579 134.816L167.478 134.816L165.876 136.383L167.567 139L166.669 139L165.364 136.891L164.774 137.43L164.774 139L164.099 139L164.099 133.262Z"/>
<path d="M57.2939 158.393L57.2939 163.713C57.2939 164.338 57.4111 164.857 57.6455 165.271C57.9932 165.896 58.5791 166.209 59.4033 166.209C60.3916 166.209 61.0635 165.871 61.4189 165.195C61.6104 164.828 61.7061 164.334 61.7061 163.713L61.7061 158.393L62.8896 158.393L62.8896 163.227C62.8896 164.285 62.7471 165.1 62.4619 165.67C61.9385 166.709 60.9502 167.229 59.4971 167.229C58.0439 167.229 57.0576 166.709 56.5381 165.67C56.2529 165.1 56.1104 164.285 56.1104 163.227L56.1104 158.393L57.2939 158.393Z"/>
<path d="M64.958 158.393L66.1357 158.393L66.1357 167L64.958 167L64.958 158.393Z"/>
<path d="M71.333 166.004C71.7275 166.004 72.0518 165.963 72.3057 165.881C72.7588 165.729 73.1299 165.436 73.4189 165.002C73.6494 164.654 73.8154 164.209 73.917 163.666C73.9756 163.342 74.0049 163.041 74.0049 162.764C74.0049 161.697 73.793 160.869 73.3691 160.279C72.9453 159.689 72.2627 159.395 71.3213 159.395L69.2529 159.395L69.2529 166.004L71.333 166.004ZM68.0811 158.393L71.5674 158.393C72.751 158.393 73.6689 158.812 74.3213 159.652C74.9033 160.41 75.1943 161.381 75.1943 162.564C75.1943 163.479 75.0225 164.305 74.6787 165.043C74.0732 166.348 73.0322 167 71.5557 167L68.0811 167L68.0811 158.393Z"/>
<path d="M77.1104 160.807L78.335 160.807L78.335 162.084L77.1104 162.084L77.1104 160.807ZM77.1104 165.723L78.335 165.723L78.335 167L77.1104 167L77.1104 165.723Z"/>
<path d="M87.124 163.473L85.8174 159.67L84.4287 163.473L87.124 163.473ZM85.208 158.393L86.5264 158.393L89.6494 167L88.3721 167L87.499 164.422L84.0947 164.422L83.1631 167L81.9678 167L85.208 158.393Z"/>
<path d="M90.5693 160.725L91.5713 160.725L91.5713 161.615C91.8682 161.248 92.1826 160.984 92.5146 160.824C92.8467 160.664 93.2158 160.584 93.6221 160.584C94.5127 160.584 95.1143 160.895 95.4268 161.516C95.5986 161.855 95.6846 162.342 95.6846 162.975L95.6846 167L94.6123 167L94.6123 163.045C94.6123 162.662 94.5557 162.354 94.4424 162.119C94.2549 161.729 93.915 161.533 93.4229 161.533C93.1729 161.533 92.9678 161.559 92.8076 161.609C92.5186 161.695 92.2646 161.867 92.0459 162.125C91.8701 162.332 91.7559 162.546 91.7031 162.767C91.6504 162.987 91.624 163.303 91.624 163.713L91.624 167L90.5693 167L90.5693 160.725Z"/>
<path d="M97.5068 159.77C97.5225 159.332 97.5986 159.012 97.7354 158.809C97.9814 158.449 98.4561 158.27 99.1592 158.27C99.2256 158.27 99.2939 158.271 99.3643 158.275C99.4346 158.279 99.5146 158.285 99.6045 158.293L99.6045 159.254C99.4951 159.246 99.416 159.241 99.3672 159.239C99.3184 159.237 99.2725 159.236 99.2295 159.236C98.9092 159.236 98.7178 159.319 98.6553 159.485C98.5928 159.651 98.5615 160.074 98.5615 160.754L99.6045 160.754L99.6045 161.586L98.5498 161.586L98.5498 167L97.5068 167L97.5068 161.586L96.6338 161.586L96.6338 160.754L97.5068 160.754L97.5068 159.77Z"/>
<path d="M100.606 160.725L101.608 160.725L101.608 161.809C101.69 161.598 101.892 161.341 102.212 161.038C102.532 160.735 102.901 160.584 103.319 160.584C103.339 160.584 103.372 160.586 103.419 160.59C103.466 160.594 103.546 160.602 103.659 160.613L103.659 161.727C103.597 161.715 103.539 161.707 103.486 161.703C103.434 161.699 103.376 161.697 103.313 161.697C102.782 161.697 102.374 161.868 102.089 162.21C101.804 162.552 101.661 162.945 101.661 163.391L101.661 167L100.606 167L100.606 160.725Z"/>
<path d="M105.382 165.33C105.382 165.635 105.493 165.875 105.716 166.051C105.938 166.227 106.202 166.314 106.507 166.314C106.878 166.314 107.237 166.229 107.585 166.057C108.171 165.771 108.464 165.305 108.464 164.656L108.464 163.807C108.335 163.889 108.169 163.957 107.966 164.012C107.763 164.066 107.563 164.105 107.368 164.129L106.729 164.211C106.347 164.262 106.06 164.342 105.868 164.451C105.544 164.635 105.382 164.928 105.382 165.33ZM107.937 163.197C108.179 163.166 108.341 163.064 108.423 162.893C108.47 162.799 108.493 162.664 108.493 162.488C108.493 162.129 108.365 161.868 108.109 161.706C107.854 161.544 107.487 161.463 107.011 161.463C106.46 161.463 106.069 161.611 105.839 161.908C105.71 162.072 105.626 162.316 105.587 162.641L104.603 162.641C104.622 161.867 104.873 161.329 105.355 161.026C105.838 160.724 106.397 160.572 107.034 160.572C107.772 160.572 108.372 160.713 108.833 160.994C109.29 161.275 109.519 161.713 109.519 162.307L109.519 165.922C109.519 166.031 109.541 166.119 109.586 166.186C109.631 166.252 109.726 166.285 109.87 166.285C109.917 166.285 109.97 166.282 110.028 166.276C110.087 166.271 110.149 166.262 110.216 166.25L110.216 167.029C110.052 167.076 109.927 167.105 109.841 167.117C109.755 167.129 109.638 167.135 109.489 167.135C109.126 167.135 108.862 167.006 108.698 166.748C108.612 166.611 108.552 166.418 108.517 166.168C108.302 166.449 107.993 166.693 107.591 166.9C107.188 167.107 106.745 167.211 106.261 167.211C105.679 167.211 105.203 167.034 104.834 166.681C104.465 166.327 104.28 165.885 104.28 165.354C104.28 164.771 104.462 164.32 104.825 164C105.188 163.68 105.665 163.482 106.255 163.408L107.937 163.197Z"/>
<path d="M113.462 160.613C113.954 160.613 114.384 160.734 114.751 160.977C114.95 161.113 115.153 161.312 115.36 161.574L115.36 160.783L116.333 160.783L116.333 166.49C116.333 167.287 116.216 167.916 115.981 168.377C115.544 169.229 114.718 169.654 113.503 169.654C112.827 169.654 112.259 169.503 111.798 169.2C111.337 168.897 111.079 168.424 111.024 167.779L112.097 167.779C112.147 168.061 112.249 168.277 112.401 168.43C112.64 168.664 113.015 168.781 113.526 168.781C114.335 168.781 114.864 168.496 115.114 167.926C115.263 167.59 115.331 166.99 115.319 166.127C115.108 166.447 114.854 166.686 114.558 166.842C114.261 166.998 113.868 167.076 113.38 167.076C112.7 167.076 112.105 166.835 111.596 166.353C111.086 165.87 110.831 165.072 110.831 163.959C110.831 162.908 111.088 162.088 111.602 161.498C112.115 160.908 112.735 160.613 113.462 160.613ZM115.36 163.836C115.36 163.059 115.2 162.482 114.88 162.107C114.56 161.732 114.151 161.545 113.655 161.545C112.913 161.545 112.405 161.893 112.132 162.588C111.987 162.959 111.915 163.445 111.915 164.047C111.915 164.754 112.059 165.292 112.346 165.661C112.633 166.03 113.019 166.215 113.503 166.215C114.261 166.215 114.794 165.873 115.103 165.189C115.274 164.803 115.36 164.352 115.36 163.836Z"/>
<path d="M120.534 160.584C120.979 160.584 121.411 160.688 121.829 160.897C122.247 161.106 122.565 161.377 122.784 161.709C122.995 162.025 123.136 162.395 123.206 162.816C123.269 163.105 123.3 163.566 123.3 164.199L118.7 164.199C118.72 164.836 118.87 165.347 119.151 165.731C119.433 166.116 119.868 166.309 120.458 166.309C121.009 166.309 121.448 166.127 121.776 165.764C121.964 165.553 122.097 165.309 122.175 165.031L123.212 165.031C123.185 165.262 123.094 165.519 122.939 165.802C122.785 166.085 122.612 166.316 122.421 166.496C122.101 166.809 121.704 167.02 121.231 167.129C120.978 167.191 120.69 167.223 120.37 167.223C119.589 167.223 118.927 166.938 118.384 166.37C117.841 165.802 117.569 165.006 117.569 163.982C117.569 162.975 117.843 162.156 118.39 161.527C118.937 160.898 119.651 160.584 120.534 160.584ZM122.216 163.361C122.173 162.904 122.073 162.539 121.917 162.266C121.628 161.758 121.146 161.504 120.47 161.504C119.985 161.504 119.579 161.679 119.251 162.028C118.923 162.378 118.749 162.822 118.729 163.361L122.216 163.361Z"/>
<path d="M128.181 158.393L134.456 158.393L134.456 159.447L129.317 159.447L129.317 162.061L134.069 162.061L134.069 163.057L129.317 163.057L129.317 165.975L134.544 165.975L134.544 167L128.181 167L128.181 158.393Z"/>
<path d="M137.339 158.393L137.339 163.713C137.339 164.338 137.456 164.857 137.69 165.271C138.038 165.896 138.624 166.209 139.448 166.209C140.437 166.209 141.108 165.871 141.464 165.195C141.655 164.828 141.751 164.334 141.751 163.713L141.751 158.393L142.935 158.393L142.935 163.227C142.935 164.285 142.792 165.1 142.507 165.67C141.983 166.709 140.995 167.229 139.542 167.229C138.089 167.229 137.103 166.709 136.583 165.67C136.298 165.1 136.155 164.285 136.155 163.227L136.155 158.393L137.339 158.393Z"/>
<path d="M62.292 172.393L62.292 173.418L59.3916 173.418L59.3916 181L58.208 181L58.208 173.418L55.3076 173.418L55.3076 172.393L62.292 172.393Z"/>
<path d="M62.4443 174.807L63.6689 174.807L63.6689 176.084L62.4443 176.084L62.4443 174.807ZM62.4443 179.723L63.6689 179.723L63.6689 181L62.4443 181L62.4443 179.723Z"/>
<path d="M68.3213 178.434L68.3213 177.449L70.876 177.449L70.876 174.877L71.8779 174.877L71.8779 177.449L74.4326 177.449L74.4326 178.434L71.8779 178.434L71.8779 181L70.876 181L70.876 178.434L68.3213 178.434Z"/>
<path d="M78.7568 178.029L78.7568 174.227L76.0674 178.029L78.7568 178.029ZM78.7744 181L78.7744 178.949L75.0947 178.949L75.0947 177.918L78.9385 172.586L79.8291 172.586L79.8291 178.029L81.0654 178.029L81.0654 178.949L79.8291 178.949L79.8291 181L78.7744 181Z"/>
<path d="M83.0576 178.973C83.0889 179.555 83.3135 179.957 83.7314 180.18C83.9463 180.297 84.1885 180.355 84.458 180.355C84.9619 180.355 85.3916 180.146 85.7471 179.726C86.1025 179.306 86.3545 178.453 86.5029 177.168C86.2686 177.539 85.9785 177.8 85.6328 177.95C85.2871 178.101 84.915 178.176 84.5166 178.176C83.708 178.176 83.0684 177.924 82.5977 177.42C82.127 176.916 81.8916 176.268 81.8916 175.475C81.8916 174.713 82.124 174.043 82.5889 173.465C83.0537 172.887 83.7393 172.598 84.6455 172.598C85.8682 172.598 86.7119 173.148 87.1768 174.25C87.4346 174.855 87.5635 175.613 87.5635 176.523C87.5635 177.551 87.4092 178.461 87.1006 179.254C86.5889 180.574 85.7217 181.234 84.499 181.234C83.6787 181.234 83.0557 181.02 82.6299 180.59C82.2041 180.16 81.9912 179.621 81.9912 178.973L83.0576 178.973ZM84.6572 177.25C85.0752 177.25 85.457 177.112 85.8027 176.837C86.1484 176.562 86.3213 176.08 86.3213 175.393C86.3213 174.775 86.166 174.315 85.8555 174.013C85.5449 173.71 85.1494 173.559 84.6689 173.559C84.1533 173.559 83.7441 173.731 83.4414 174.077C83.1387 174.423 82.9873 174.885 82.9873 175.463C82.9873 176.01 83.1201 176.444 83.3857 176.767C83.6514 177.089 84.0752 177.25 84.6572 177.25Z"/>
<path d="M97.7471 172.75L97.7471 173.67C97.4775 173.932 97.1191 174.387 96.6719 175.035C96.2246 175.684 95.8291 176.383 95.4854 177.133C95.1455 177.863 94.8877 178.529 94.7119 179.131C94.5986 179.518 94.4521 180.141 94.2725 181L93.1064 181C93.3721 179.398 93.958 177.805 94.8643 176.219C95.3994 175.289 95.9619 174.486 96.5518 173.811L91.9111 173.811L91.9111 172.75L97.7471 172.75Z"/>
<path d="M101.655 172.574C102.593 172.574 103.246 172.817 103.615 173.304C103.984 173.79 104.169 174.291 104.169 174.807L103.126 174.807C103.063 174.475 102.964 174.215 102.827 174.027C102.573 173.676 102.188 173.5 101.673 173.5C101.083 173.5 100.614 173.772 100.267 174.317C99.9189 174.862 99.7256 175.643 99.6865 176.658C99.9287 176.303 100.233 176.037 100.601 175.861C100.937 175.705 101.312 175.627 101.726 175.627C102.429 175.627 103.042 175.852 103.565 176.301C104.089 176.75 104.351 177.42 104.351 178.311C104.351 179.072 104.103 179.747 103.606 180.335C103.11 180.923 102.403 181.217 101.485 181.217C100.7 181.217 100.022 180.919 99.4521 180.323C98.8818 179.728 98.5967 178.725 98.5967 177.314C98.5967 176.271 98.7236 175.387 98.9775 174.66C99.4658 173.27 100.358 172.574 101.655 172.574ZM101.579 180.279C102.134 180.279 102.549 180.093 102.824 179.72C103.1 179.347 103.237 178.906 103.237 178.398C103.237 177.969 103.114 177.56 102.868 177.171C102.622 176.782 102.175 176.588 101.526 176.588C101.073 176.588 100.676 176.738 100.334 177.039C99.9922 177.34 99.8213 177.793 99.8213 178.398C99.8213 178.93 99.9766 179.376 100.287 179.737C100.598 180.099 101.028 180.279 101.579 180.279Z"/>
<path d="M105.194 181C105.233 180.277 105.383 179.648 105.643 179.113C105.902 178.578 106.409 178.092 107.163 177.654L108.288 177.004C108.792 176.711 109.146 176.461 109.349 176.254C109.669 175.93 109.829 175.559 109.829 175.141C109.829 174.652 109.683 174.265 109.39 173.978C109.097 173.69 108.706 173.547 108.218 173.547C107.495 173.547 106.995 173.82 106.718 174.367C106.569 174.66 106.487 175.066 106.472 175.586L105.399 175.586C105.411 174.855 105.546 174.26 105.804 173.799C106.261 172.986 107.067 172.58 108.224 172.58C109.185 172.58 109.887 172.84 110.33 173.359C110.773 173.879 110.995 174.457 110.995 175.094C110.995 175.766 110.759 176.34 110.286 176.816C110.013 177.094 109.522 177.43 108.815 177.824L108.013 178.27C107.63 178.48 107.329 178.682 107.11 178.873C106.72 179.213 106.474 179.59 106.372 180.004L110.954 180.004L110.954 181L105.194 181Z"/>
<path d="M112.642 175.059L112.642 174.25C113.403 174.176 113.935 174.052 114.235 173.878C114.536 173.704 114.761 173.293 114.909 172.645L115.741 172.645L115.741 181L114.616 181L114.616 175.059L112.642 175.059Z"/>
<path d="M123.095 178.973C123.126 179.555 123.351 179.957 123.769 180.18C123.983 180.297 124.226 180.355 124.495 180.355C124.999 180.355 125.429 180.146 125.784 179.726C126.14 179.306 126.392 178.453 126.54 177.168C126.306 177.539 126.016 177.8 125.67 177.95C125.324 178.101 124.952 178.176 124.554 178.176C123.745 178.176 123.105 177.924 122.635 177.42C122.164 176.916 121.929 176.268 121.929 175.475C121.929 174.713 122.161 174.043 122.626 173.465C123.091 172.887 123.776 172.598 124.683 172.598C125.905 172.598 126.749 173.148 127.214 174.25C127.472 174.855 127.601 175.613 127.601 176.523C127.601 177.551 127.446 178.461 127.138 179.254C126.626 180.574 125.759 181.234 124.536 181.234C123.716 181.234 123.093 181.02 122.667 180.59C122.241 180.16 122.028 179.621 122.028 178.973L123.095 178.973ZM124.694 177.25C125.112 177.25 125.494 177.112 125.84 176.837C126.186 176.562 126.358 176.08 126.358 175.393C126.358 174.775 126.203 174.315 125.893 174.013C125.582 173.71 125.187 173.559 124.706 173.559C124.19 173.559 123.781 173.731 123.479 174.077C123.176 174.423 123.024 174.885 123.024 175.463C123.024 176.01 123.157 176.444 123.423 176.767C123.688 177.089 124.112 177.25 124.694 177.25Z"/>
<path d="M129.323 175.059L129.323 174.25C130.085 174.176 130.616 174.052 130.917 173.878C131.218 173.704 131.442 173.293 131.591 172.645L132.423 172.645L132.423 181L131.298 181L131.298 175.059L129.323 175.059Z"/>
<path d="M138.358 172.574C139.296 172.574 139.949 172.817 140.318 173.304C140.688 173.79 140.872 174.291 140.872 174.807L139.829 174.807C139.767 174.475 139.667 174.215 139.53 174.027C139.276 173.676 138.892 173.5 138.376 173.5C137.786 173.5 137.317 173.772 136.97 174.317C136.622 174.862 136.429 175.643 136.39 176.658C136.632 176.303 136.937 176.037 137.304 175.861C137.64 175.705 138.015 175.627 138.429 175.627C139.132 175.627 139.745 175.852 140.269 176.301C140.792 176.75 141.054 177.42 141.054 178.311C141.054 179.072 140.806 179.747 140.31 180.335C139.813 180.923 139.106 181.217 138.188 181.217C137.403 181.217 136.726 180.919 136.155 180.323C135.585 179.728 135.3 178.725 135.3 177.314C135.3 176.271 135.427 175.387 135.681 174.66C136.169 173.27 137.062 172.574 138.358 172.574ZM138.282 180.279C138.837 180.279 139.252 180.093 139.527 179.72C139.803 179.347 139.94 178.906 139.94 178.398C139.94 177.969 139.817 177.56 139.571 177.171C139.325 176.782 138.878 176.588 138.229 176.588C137.776 176.588 137.379 176.738 137.037 177.039C136.695 177.34 136.524 177.793 136.524 178.398C136.524 178.93 136.68 179.376 136.99 179.737C137.301 180.099 137.731 180.279 138.282 180.279Z"/>
<path d="M143.005 178.861C143.075 179.463 143.354 179.879 143.843 180.109C144.093 180.227 144.382 180.285 144.71 180.285C145.335 180.285 145.798 180.086 146.099 179.688C146.399 179.289 146.55 178.848 146.55 178.363C146.55 177.777 146.371 177.324 146.014 177.004C145.656 176.684 145.228 176.523 144.728 176.523C144.364 176.523 144.053 176.594 143.793 176.734C143.533 176.875 143.312 177.07 143.128 177.32L142.214 177.268L142.853 172.75L147.212 172.75L147.212 173.77L143.644 173.77L143.286 176.102C143.481 175.953 143.667 175.842 143.843 175.768C144.155 175.639 144.517 175.574 144.927 175.574C145.696 175.574 146.349 175.822 146.884 176.318C147.419 176.814 147.687 177.443 147.687 178.205C147.687 178.998 147.441 179.697 146.951 180.303C146.461 180.908 145.679 181.211 144.604 181.211C143.921 181.211 143.316 181.019 142.791 180.634C142.266 180.249 141.972 179.658 141.909 178.861L143.005 178.861Z"/>
<path d="M157.806 172.75L157.806 173.67C157.536 173.932 157.178 174.387 156.73 175.035C156.283 175.684 155.888 176.383 155.544 177.133C155.204 177.863 154.946 178.529 154.771 179.131C154.657 179.518 154.511 180.141 154.331 181L153.165 181C153.431 179.398 154.017 177.805 154.923 176.219C155.458 175.289 156.021 174.486 156.61 173.811L151.97 173.811L151.97 172.75L157.806 172.75Z"/>
<path d="M162.171 178.029L162.171 174.227L159.481 178.029L162.171 178.029ZM162.188 181L162.188 178.949L158.509 178.949L158.509 177.918L162.353 172.586L163.243 172.586L163.243 178.029L164.479 178.029L164.479 178.949L163.243 178.949L163.243 181L162.188 181Z"/>
<path d="M168.388 172.574C169.325 172.574 169.979 172.817 170.348 173.304C170.717 173.79 170.901 174.291 170.901 174.807L169.858 174.807C169.796 174.475 169.696 174.215 169.56 174.027C169.306 173.676 168.921 173.5 168.405 173.5C167.815 173.5 167.347 173.772 166.999 174.317C166.651 174.862 166.458 175.643 166.419 176.658C166.661 176.303 166.966 176.037 167.333 175.861C167.669 175.705 168.044 175.627 168.458 175.627C169.161 175.627 169.774 175.852 170.298 176.301C170.821 176.75 171.083 177.42 171.083 178.311C171.083 179.072 170.835 179.747 170.339 180.335C169.843 180.923 169.136 181.217 168.218 181.217C167.433 181.217 166.755 180.919 166.185 180.323C165.614 179.728 165.329 178.725 165.329 177.314C165.329 176.271 165.456 175.387 165.71 174.66C166.198 173.27 167.091 172.574 168.388 172.574ZM168.312 180.279C168.866 180.279 169.281 180.093 169.557 179.72C169.832 179.347 169.97 178.906 169.97 178.398C169.97 177.969 169.847 177.56 169.601 177.171C169.354 176.782 168.907 176.588 168.259 176.588C167.806 176.588 167.408 176.738 167.066 177.039C166.725 177.34 166.554 177.793 166.554 178.398C166.554 178.93 166.709 179.376 167.02 179.737C167.33 180.099 167.761 180.279 168.312 180.279Z"/>
</g>
</g>
</svg>
